<?xml version="1.0" encoding="UTF-8" standalone="no"?>
<!DOCTYPE svg PUBLIC "-//W3C//DTD SVG 1.1//EN" "http://www.w3.org/Graphics/SVG/1.1/DTD/svg11.dtd">
<svg width="100%" height="100%" viewBox="0 0 2000 2000" version="1.1" xmlns="http://www.w3.org/2000/svg" xmlns:xlink="http://www.w3.org/1999/xlink" xml:space="preserve" xmlns:serif="http://www.serif.com/" style="fill-rule:evenodd;clip-rule:evenodd;stroke-linejoin:round;stroke-miterlimit:2;">
    <g transform="matrix(0.965284,0,0,0.961114,15.444552,39.327892)">
        <rect x="-16" y="-43" width="2074" height="2083"/>
    </g>
    <g transform="matrix(1,0,0,1,0,36)">
        <g transform="matrix(6.906608,0,0,6.906608,-4792.275563,-6409.31232)">
            <g transform="matrix(107.397571,0,0,107.397571,866.20577,1084.253306)">
            </g>
            <text x="806.476px" y="1084.253px" style="font-family:'Arial-BoldMT', 'Arial', sans-serif;font-weight:700;font-size:107.398px;fill:white;">1</text>
        </g>
        <g transform="matrix(1.524311,0,0,1.524311,-516.693657,-334.812047)">
            <g transform="matrix(107.397571,0,0,107.397571,1190.46462,1052.481802)">
            </g>
            <text x="778.809px" y="1052.482px" style="font-family:'Arial-BoldItalicMT', 'Arial', sans-serif;font-weight:700;font-style:italic;font-size:107.398px;fill:white;">NORITH</text>
        </g>
        <g transform="matrix(0.720103,0,0,0.720103,-148.612537,619.488926)">
            <g transform="matrix(107.397571,0,0,107.397571,2370.159815,1052.481802)">
            </g>
            <text x="778.809px" y="1052.482px" style="font-family:'ArialMT', 'Arial', sans-serif;font-size:107.398px;fill:white;">DECADE OF LOVE FT<tspan x="1870.876px 1900.715px 1930.553px 1994.216px 2065.849px " y="1052.482px 1052.482px 1052.482px 1052.482px 1052.482px ">. VAN</tspan>NDA</text>
        </g>
        <g transform="matrix(0.710109,0,0,0.710109,33.165771,696.866188)">
            <g transform="matrix(64.544111,0,0,64.544111,1943.12415,1052.481802)">
            </g>
            <text x="778.809px" y="1052.482px" style="font-family:'ArialMT', 'Arial', sans-serif;font-size:64.544px;fill:rgb(135,135,135);">368 HEA<tspan x="1032.353px 1070.613px 1088.545px " y="1052.482px 1052.482px 1052.482px ">T P</tspan>OINT<tspan x="1284.604px 1302.536px " y="1052.482px 1052.482px "> |</tspan> +0.55% | 276K | 87%</text>
        </g>
        <g transform="matrix(0.563807,0.563807,-0.563807,0.563807,924.357309,638.883334)">
            <rect x="89" y="504" width="116" height="116" style="fill:white;"/>
        </g>
    </g>
    <g transform="matrix(3.160984,0,0,3.160984,-2650.768839,-4331.277449)">
        <g transform="matrix(37.906073,0,0,37.906073,1026.67531,1430.05109)">
        </g>
        <text x="868.767px" y="1430.051px" style="font-family:'Arial-BoldMT', 'Arial', sans-serif;font-weight:700;font-size:37.906px;fill:white;">.<tspan x="891.049px 930.175px 967.209px 1003.521px " y="1430.051px 1430.051px 1430.051px 1430.051px ">HEAT</tspan></text>
    </g>
    <g transform="matrix(1.21054,0,0,1.21054,931.969485,853.211247)">
        <g transform="matrix(38.28347,0,0,38.28347,768.637031,854.531592)">
        </g>
        <text x="-206.453px" y="854.532px" style="font-family:'Helvetica';font-size:38.283px;fill:rgb(228,228,228);">C<tspan x="-171.532px -138.723px -99.559px -66.75px -29.698px 5.223px 23.133px 53.848px 71.758px 106.679px 139.488px 157.398px 183.141px 215.276px 233.187px 268.108px 300.916px 335.837px 368.646px 386.556px 421.477px 458.529px 476.439px 493.658px 511.568px 540.133px 568.699px 586.609px 615.174px 643.739px 661.65px 690.215px 718.78px 747.346px " y="854.532px 854.532px 854.532px 854.532px 854.532px 854.532px 854.532px 854.532px 854.532px 854.532px 854.532px 854.532px 854.532px 854.532px 854.532px 854.532px 854.532px 854.532px 854.532px 854.532px 854.532px 854.532px 854.532px 854.532px 854.532px 854.532px 854.532px 854.532px 854.532px 854.532px 854.532px 854.532px 854.532px 854.532px ">AMBODIA DAILY RANKING | 17 02 2026</tspan></text>
    </g>
</svg>
