<?xml version="1.0" encoding="UTF-8" standalone="no"?>
<!DOCTYPE svg PUBLIC "-//W3C//DTD SVG 1.1//EN" "http://www.w3.org/Graphics/SVG/1.1/DTD/svg11.dtd">
<svg width="100%" height="100%" viewBox="0 0 2000 2000" version="1.1" xmlns="http://www.w3.org/2000/svg" xmlns:xlink="http://www.w3.org/1999/xlink" xml:space="preserve" xmlns:serif="http://www.serif.com/" style="fill-rule:evenodd;clip-rule:evenodd;stroke-linejoin:round;stroke-miterlimit:2;">
    <g transform="matrix(0.965284,0,0,0.961114,15.444552,39.327892)">
        <rect x="-16" y="-43" width="2074" height="2083"/>
    </g>
    <g transform="matrix(1.128885,0,0,1.140878,-2321.35022,-153.092731)">
        <g transform="matrix(3.560409,0,0,3.560409,-463.090116,-2825.401853)">
            <text x="806.476px" y="1084.253px" style="font-family:'Helvetica';font-size:23.212px;fill:white;">DECADE OF LOVE FT<tspan x="1042.504px 1048.953px 1055.402px 1069.173px 1084.655px " y="1084.253px 1084.253px 1084.253px 1084.253px 1084.253px ">. VAN</tspan>NDA</text>
            <g transform="matrix(20.474157,0,0,20.474157,872.437535,1110.165911)">
            </g>
            <text x="806.476px" y="1110.166px" style="font-family:'Helvetica-BoldOblique', 'Helvetica';font-weight:700;font-style:italic;font-size:20.474px;fill:white;">Norith</text>
        </g>
        <g transform="matrix(3.560409,0,0,3.560409,-463.090116,-3061.465489)">
            <text x="806.476px" y="1084.253px" style="font-family:'Helvetica';font-size:23.212px;fill:white;">DECADE OF LOVE FT<tspan x="1042.504px 1048.953px 1055.402px 1069.173px 1084.655px " y="1084.253px 1084.253px 1084.253px 1084.253px 1084.253px ">. VAN</tspan>NDA</text>
            <g transform="matrix(20.51538,0,0,20.51538,872.570343,1110.218084)">
            </g>
            <text x="806.476px" y="1110.218px" style="font-family:'Helvetica-BoldOblique', 'Helvetica';font-weight:700;font-style:italic;font-size:20.515px;fill:white;">Norith</text>
        </g>
        <g transform="matrix(3.560409,0,0,3.560409,-463.090116,-2587.775886)">
            <text x="806.476px" y="1084.253px" style="font-family:'Helvetica';font-size:23.212px;fill:white;">DECADE OF LOVE FT<tspan x="1042.504px 1048.953px 1055.402px 1069.173px 1084.655px " y="1084.253px 1084.253px 1084.253px 1084.253px 1084.253px ">. VAN</tspan>NDA</text>
            <g transform="matrix(20.474157,0,0,20.474157,872.437535,1110.165911)">
            </g>
            <text x="806.476px" y="1110.166px" style="font-family:'Helvetica-BoldOblique', 'Helvetica';font-weight:700;font-style:italic;font-size:20.474px;fill:white;">Norith</text>
        </g>
        <g transform="matrix(4.313418,0,0,4.02302,-1001.166246,-5500.607359)">
            <g transform="matrix(35.097488,0,0,35.097488,772.343918,1635.180795)">
            </g>
            <text x="752.824px" y="1635.181px" style="font-family:'Helvetica-BoldOblique', 'Helvetica';font-weight:700;font-style:italic;font-size:35.097px;fill:white;">3</text>
        </g>
        <g transform="matrix(4.313418,0,0,4.02302,-1001.166246,-5741.670964)">
            <g transform="matrix(35.097488,0,0,35.097488,772.343918,1635.180795)">
            </g>
            <text x="752.824px" y="1635.181px" style="font-family:'Helvetica-BoldOblique', 'Helvetica';font-weight:700;font-style:italic;font-size:35.097px;fill:white;">2</text>
        </g>
        <g transform="matrix(4.313418,0,0,4.02302,-1001.166246,-5266.455448)">
            <g transform="matrix(35.097488,0,0,35.097488,772.343918,1635.180795)">
            </g>
            <text x="752.824px" y="1635.181px" style="font-family:'Helvetica-BoldOblique', 'Helvetica';font-weight:700;font-style:italic;font-size:35.097px;fill:white;">4</text>
        </g>
    </g>
    <g transform="matrix(3.160984,0,0,3.160984,-2650.768839,-4331.277449)">
        <g transform="matrix(37.906073,0,0,37.906073,1026.67531,1430.05109)">
        </g>
        <text x="868.767px" y="1430.051px" style="font-family:'Arial-BoldMT', 'Arial', sans-serif;font-weight:700;font-size:37.906px;fill:white;">.<tspan x="891.049px 930.175px 967.209px 1003.521px " y="1430.051px 1430.051px 1430.051px 1430.051px ">HEAT</tspan></text>
    </g>
    <g transform="matrix(1.21054,0,0,1.21054,931.969485,853.211247)">
        <g transform="matrix(38.28347,0,0,38.28347,768.637031,854.531592)">
        </g>
        <text x="-206.453px" y="854.532px" style="font-family:'Helvetica';font-size:38.283px;fill:rgb(228,228,228);">C<tspan x="-171.532px -138.723px -99.559px -66.75px -29.698px 5.223px 23.133px 53.848px 71.758px 106.679px 139.488px 157.398px 183.141px 215.276px 233.187px 268.108px 300.916px 335.837px 368.646px 386.556px 421.477px 458.529px 476.439px 493.658px 511.568px 540.133px 568.699px 586.609px 615.174px 643.739px 661.65px 690.215px 718.78px 747.346px " y="854.532px 854.532px 854.532px 854.532px 854.532px 854.532px 854.532px 854.532px 854.532px 854.532px 854.532px 854.532px 854.532px 854.532px 854.532px 854.532px 854.532px 854.532px 854.532px 854.532px 854.532px 854.532px 854.532px 854.532px 854.532px 854.532px 854.532px 854.532px 854.532px 854.532px 854.532px 854.532px 854.532px 854.532px ">AMBODIA DAILY RANKING | 17 02 2026</tspan></text>
    </g>
</svg>
