<?xml version="1.0" encoding="UTF-8"?>
<!-- Generator: Blender, SVG Export for Grease Pencil - v2.1 -->
<!DOCTYPE svg PUBLIC "-//W3C//DTD SVG 1.1//EN" "http://www.w3.org/Graphics/SVG/1.1/DTD/svg11.dtd">
<svg version="1.1" x="0px" y="0px" xmlns="http://www.w3.org/2000/svg" width="380.257507px" height="197.516724px" viewBox="0 0 380.257507 197.516724">
	<g id="blender_frame.1">
		<g id="blender_object.BB.1.uuid_0x0">
			<g id="layer.Lines.uuid_0x1">
				<path d="M280.29242,35.76593L233.9123,31.891174L188.57355,32.61206L156.456,31.164185L114.75195,20.903015L77.19714,12.709778L32.065796,9.892456L32.01764,9.894775L31.971191,9.907471L31.928772,9.930237L31.892456,9.961792L31.864014,10.00061L25.24884,16.185974L21.189209,21.750854L14.859985,29.45697L10.395386,38.661682L10.422424,38.77722L10.951477,42.30951L11.968689,47.989014L11.700806,55.927063L14.842224,64.117615L21.983032,73.79907L23.10492,82.91675L23.135681,82.96185L23.176208,82.99835L23.224304,83.02435L23.2771,83.03833L23.331665,83.03912L23.384949,83.02722L62.406555,71.43292L86.922424,93.04596L57.774048,125.8739L16.04364,140.2569L15.999329,140.28015L15.960754,140.31195L15.9296875,140.3512L15.907471,140.39606L15.894897,140.4444L15.892578,140.4945L15.900818,140.54388L15.918945,140.5904L15.946472,140.63232L15.981934,140.66748L16.024109,140.69458L21.298157,144.0716L27.612854,149.43695L32.123657,155.53412L36.570618,162.7774L43.565735,172.32227L48.282715,177.19397L45.615417,184.90564L45.623962,184.96295L45.645264,185.0169L45.67859,185.06433L45.722046,185.10272L45.773193,185.13L45.829163,185.14484L45.887146,185.14612L95.0625,180.52905L153.11328,176.83215L192.4903,169.79852L235.664,167.55371L284.87848,174.9032L284.96185,174.9007L285.0396,174.87054L317.6308,156.81036L317.67706,156.77454L317.71344,156.7287L317.73773,156.67548L317.74872,156.6181L323.44342,132.1676L348.6645,115.70941L362.53766,102.38684L369.44232,93.28003L369.46368,93.23407L369.47455,93.18445L369.4743,93.13373L369.46307,93.08435L369.44135,93.03845L369.40997,92.99835L361.45746,83.8952L363.00812,75.119446L362.6364,66.54816L366.1396,58.16571L366.1468,58.11554L366.14252,58.06494L366.12714,58.0166L366.10126,57.97284L366.0661,57.93622L366.02374,57.908264L365.97614,57.890564L342.35638,52.19403L318.0064,44.260925zM317.8764,44.68634L342.22394,52.621826L365.6468,58.272278L362.18585,66.4812L362.18182,66.57764L362.55145,75.12775L360.9948,83.97766L361.00104,84.03888L361.02338,84.09631L361.06,84.14581L368.95343,93.1933L362.17438,102.09381L348.36566,115.34412L323.07172,131.8479L323.0224,131.8963L322.98907,131.95691L322.97455,132.02441L317.27167,156.45819L284.8609,174.4024L235.70892,167.06439L192.4494,169.30847L153.06781,176.33984L95.02765,180.03467L46.10504,184.6264L48.773376,177.0578L48.759827,176.98364L48.72455,176.91711L48.670776,176.86426L43.881775,171.94427L36.908203,162.4237L32.459045,155.18213L27.916565,149.05981L21.545166,143.65771L16.716797,140.50616L58.033203,126.28223L58.10559,126.23694L58.157166,126.16901L87.42676,93.07495L87.44574,93.02301L87.45184,92.96808L87.44464,92.91315L87.424805,92.86157L87.39313,92.816284L87.351685,92.77966L62.56903,70.99274L62.52179,70.96777L62.46991,70.95465L62.416443,70.95392L62.36438,70.965515L23.420227,82.527954L22.368408,73.55249L15.188232,63.82605L12.108887,55.737305L12.3793335,47.81433L11.339294,42.09381L10.839905,38.618286L15.285217,29.570557L21.603882,21.886536L25.639526,16.377136L32.171387,10.3324585L77.119446,13.135986L114.64978,21.326843L156.37097,31.596191L188.55951,33.052124L233.88507,32.330444L280.20746,36.19928z" fill="#000000" stroke="none" fill-opacity="1" fill-rule="nonzero" />
			</g>
			<g id="layer.Fills.uuid_0x2">
				<path d="M32.570923,156.96039L37.02307,164.21234L44.00757,173.75293L48.804016,178.68378L46.14496,186.5227L95.2948,181.90308L153.31543,178.20422L192.65594,171.16815L235.84381,168.9201L285.05475,176.27637L317.62738,158.20709L323.3288,133.62933L348.62616,117.096375L362.45514,103.80023L369.3322,94.72113L361.31598,85.53967L362.8703,76.65961L362.49445,68.079956L366.0091,59.643982L342.39313,53.93994L318.04742,45.996704L280.37177,37.498962L234.04547,33.625305L188.74591,34.34796L156.6159,32.897278L114.91095,22.621094L77.37897,14.4210205L32.302002,11.605713L25.692566,17.796387L21.656555,23.321777L15.330811,31.042175L10.88446,40.190918L11.414429,43.725586L12.440002,49.42047L12.181885,57.381104L15.292786,65.51941L22.435974,75.204346L23.579773,84.36432L62.68799,72.724915L87.459595,94.53113L58.20697,127.645996L16.42041,142.07465L21.702637,145.4585L28.041016,150.84265z" fill-rule="evenodd" fill="#FEFEFE" stroke="none" fill-opacity="1" />
			</g>
		</g>
	</g>
</svg>
