<?xml version="1.0" encoding="UTF-8"?>
<!-- Generator: Blender, SVG Export for Grease Pencil - v2.1 -->
<!DOCTYPE svg PUBLIC "-//W3C//DTD SVG 1.1//EN" "http://www.w3.org/Graphics/SVG/1.1/DTD/svg11.dtd">
<svg version="1.1" x="0px" y="0px" xmlns="http://www.w3.org/2000/svg" width="1657.520142px" height="891.935730px" viewBox="0 0 1657.520142 891.935730">
	<g id="blender_frame.1">
		<g id="blender_object.KH1.004.1.uuid_0x0">
			<g id="layer.Lines.uuid_0x1">
				<path d="M597.38916,496.61316L619.3329,497.461L641.2987,498.3097L642.5748,510.14392L637.81824,525.3802L629.68274,540.18097L621.05725,555.1717L627.7279,571.1155L634.78467,587.2737L649.7012,600.5388L664.8451,614.0064L658.37634,619.7407L634.8013,619.2815L613.9263,622.4213L602.3241,637.9982L590.5211,653.84534L572.3125,661.60223L548.19714,661.5215L524.084,661.44055L501.9685,655.9675L481.0929,647.62976L459.11816,641.7447L436.09497,638.0393L413.5354,633.9275L399.44763,620.4771L385.56628,607.22375L383.25403,591.17114L385.52063,574.21936L387.93323,557.6027L394.90076,541.66113L401.42102,525.9567L385.43213,515.8942L369.6294,505.9488L360.6671,492.7693L353.18005,479.12805L357.26733,465.00903L365.03772,450.90088L372.67615,437.03204L387.03394,429.5769L408.1975,428.3733L429.20435,428.76373L450.09155,429.13403L467.6787,420.688L485.30164,412.56122L503.286,405.08002L515.4061,406.37317L519.69946,419.80945L523.9403,433.50336L527.52747,447.59686L533.9575,461.30188L543.07556,474.64258L557.2615,484.6595L577.254,490.6151zM548.3712,481.43707L539.1697,467.98053L530.11523,454.73895L526.2765,440.53015L522.4075,426.55548L518.0265,412.89L512.8174,400.55627L494.83484,408.03125L476.81897,415.71613L459.2677,424.14215L440.08447,428.59406L419.01917,427.89618L397.85095,428.43115L376.59412,429.6386L368.6355,443.2528L360.88464,457.33234L352.99927,471.65594L356.11426,485.6292L363.7235,499.46454L376.49133,510.9353L392.41162,520.9685L397.8026,533.64233L390.88452,549.44446L386.07666,565.77356L383.81677,582.6882L381.51306,599.9302L391.9442,614.137L406.00903,627.5509L424.16113,636.7256L447.22144,640.4364L470.3755,644.16205L491.30872,652.3544L512.3567,660.76306L536.11096,662.0776L560.31433,662.16327L584.51953,662.24945L596.7291,646.4871L608.4718,630.7125L623.4247,619.6515L647.0808,620.111L670.74866,620.571L658.8688,607.8377L643.66736,594.3634L631.9966,579.8214L625.25903,563.7146L625.4535,548.228L634.4614,533.4349L640.64,518.20685L645.43066,502.91986L631.7787,497.3896L609.7412,496.54205L588.5095,493.3935L568.3689,487.39398z" fill="#000000" stroke="none" fill-opacity="1" fill-rule="nonzero" />
			</g>
			<g id="layer.Fills.uuid_0x2">
				<path d="M621.15063,556.3L637.1061,530.11145L646.57666,499.8318L597.46045,497.94086L548.25183,483.2707L529.57434,455.94354L523.7129,432.91302L513.82166,402.013L480.0421,416.07086L449.5111,430.74493L411.71765,429.49188L376.4276,431.49963L351.1953,477.4018L366.9745,506.10364L401.47998,527.83594L387.52844,559.7863L381.48096,605.2155L414.1726,636.41296L471.25415,645.6035L515.61914,663.33765L584.85657,663.5702L616.66174,620.8422L672.43884,621.9266L634.5305,588.2954z" fill-rule="evenodd" fill="#FEFEFE" stroke="none" fill-opacity="1" />
			</g>
		</g>
		<g id="blender_object.PP.1.uuid_0x3">
			<g id="layer.Lines.uuid_0x4">
				<path d="M780.28125,526.3486L779.86597,542.01544L779.4431,557.9714L783.3966,574.2487L789.86707,590.2743L804.03796,604.36554L818.4352,618.6819L818.469,635.3095L815.52014,652.67615L808.6101,669.45654L800.7871,686.35754L789.49023,702.1155L776.47974,717.46844L766.67847,734.5332L759.12085,752.9513L737.02686,758.4983L718.9652,746.5763L703.3987,735.79236L704.45605,716.45166L705.49255,697.49695L702.84875,678.92163L698.7456,660.70905L689.845,644.0014L678.541,628.236L665.4855,613.705L650.5239,600.4421L635.7798,587.3721L628.59753,571.69574L622.07153,556.0948L629.58813,541.43787L637.8888,526.9833L642.59924,511.932L648.8008,498.4292L670.3054,497.59772L691.7893,496.7672L713.27026,496.4201L734.833,497.86066L756.08923,499.71594L768.0901,512.92773zM755.9962,498.79382L734.3336,497.2732L712.6842,495.82782L691.1178,496.2414L669.54565,497.07434L647.9525,497.90814L642.05334,511.86456L637.31396,526.9993L628.8657,541.5206L621.55774,556.3677L628.1361,572.09076L635.4662,587.87665L650.2672,601.0002L665.28784,614.31836L678.3169,628.9413L689.65234,644.7656L698.3187,661.55566L702.4331,679.7982L704.81665,698.44366L703.7582,717.5415L702.6782,737.0287L719.46216,747.37714L737.6406,759.0453L759.6428,753.24884L767.2191,734.74994L777.14026,717.65186L790.1946,702.2383L801.42053,686.3611L809.2982,669.37445L816.1295,652.4688L819.1315,634.96387L818.7815,618.1817L804.31384,603.80444L790.0742,589.6538L783.8125,573.6053L780.0343,557.34064L780.4591,541.3086L780.3474,525.5831L768.0762,512.08344z" fill="#000000" stroke="none" fill-opacity="1" fill-rule="nonzero" />
			</g>
			<g id="layer.Fills.uuid_0x5">
				<path d="M779.56323,560.8125L780.4501,527.85767L755.68445,500.5783L708.6134,497.4325L646.57666,499.8318L637.1061,530.11145L621.15063,556.3L634.5305,588.2954L672.43884,621.9266L696.9789,656.1937L705.40576,693.57404L702.6084,744.1194L726.99866,750.7477L735.03894,760.72833L758.2179,757.21765L771.11475,725.74207L798.3816,693.5441L815.1273,657.365L821.05786,622.64545L786.9536,588.71844z" fill-rule="evenodd" fill="#FEFEFE" stroke="none" fill-opacity="1" />
			</g>
		</g>
		<g id="blender_object.KH1.006.1.uuid_0x6">
			<g id="layer.Lines.uuid_0x7">
				<path d="M584.84375,662.2505L596.6697,646.567L608.1991,631.0789L622.43555,619.63226L645.6555,620.0836L668.8871,620.53546L681.8873,633.91785L693.27405,649.8198L699.60925,667.27783L703.75024,685.6394L704.48413,704.44385L703.4188,723.6687L702.3225,743.2797L691.96265,759.89233L689.1371,779.7356L689.9779,800.5367L688.0344,819.7753L664.1876,827.4595L640.1576,835.2024L619.44885,847.9381L597.96277,859.95435L572.62476,863.1406L548.8688,855.4645L538.506,838.88855L544.8644,817.7822L551.09143,797.1118L556.11035,776.74304L555.9833,756.3637L555.85876,736.4014L534.68176,729.3552L518.48267,719.81604L519.79553,700.67065L518.71216,682.02295L516.1847,663.81274L537.3262,662.0908L561.08386,662.17065zM515.55444,661.41205L517.7578,679.6917L519.33276,698.4287L518.011,717.6843L531.12915,729.1803L554.72864,734.7193L555.3386,754.356L555.4542,774.711L550.99365,795.1626L544.729,815.9175L538.3323,837.11017L546.34595,854.5514L569.6199,863.3331L595.1708,861.40845L617.38,850.2261L637.69507,836.69525L661.85986,828.9144L685.83984,821.19336L690.8563,803.3252L689.6229,782.34186L690.8507,761.903L702.79333,745.6235L703.9241,725.8631L704.9928,706.4979L704.7894,687.5352L700.61255,668.99567L694.9796,651.16235L683.48804,635.1356L671.6548,619.9961L648.3186,619.54297L624.994,619.09L609.24243,628.70984L597.682,644.23096L585.9226,660.0194L563.2798,661.572L539.41614,661.49207z" fill="#000000" stroke="none" fill-opacity="1" fill-rule="nonzero" />
			</g>
			<g id="layer.Fills.uuid_0x8">
				<path d="M696.9789,656.1937L672.43884,621.9266L616.66174,620.8422L584.85657,663.5702L515.61914,663.33765L520.0482,695.02844L517.83923,727.3515L555.5686,736.1985L555.84717,781.9607L535.786,848.50507L556.1499,862.4674L581.38354,866.50244L606.15454,859.6695L634.3561,839.03705L691.7578,820.547L689.0054,787.6144L690.4928,763.1541L701.9907,753.165L702.6084,744.1194L705.40576,693.57404z" fill-rule="evenodd" fill="#FEFEFE" stroke="none" fill-opacity="1" />
			</g>
		</g>
		<g id="blender_object.KH1.007.1.uuid_0x9">
			<g id="layer.Lines.uuid_0xa">
				<path d="M841.45557,522.5313L863.19434,527.9369L885.07056,533.37665L906.7855,539.3372L926.07104,549.628L945.5996,560.02234L967.7377,566.8496L988.5923,574.9044L1000.36206,590.6202L1012.34534,606.621L998.70874,613.3738L981.1022,621.32666L970.06384,635.69556L963.06665,651.90656L958.1388,669.2548L951.6404,686.4414L943.32104,703.37805L935.15283,720.7278L929.19226,739.22687L923.2439,758.1135L917.08276,776.82654L892.5459,780.6676L867.86743,772.89734L844.7141,775.0491L825.193,786.97345L801.10486,787.119L778.3292,776.0175L760.6537,762.4685L763.7512,743.25977L771.3153,724.7484L784.49316,708.97034L797.59094,693.5049L806.058,676.36176L813.94995,659.3441L817.9724,641.7219L820.9767,624.20294L809.54065,608.9985L795.0398,594.5882L785.2903,579.16705L780.8898,562.6039L780.3147,546.339L780.724,530.3722L797.48596,525.4265L819.4894,523.9777zM780.56384,525.9756L779.87634,541.96295L779.43506,558.28436L783.56995,574.9056L790.71606,591.1185L805.19214,605.5134L819.9044,620.1428L818.1134,637.4031L815.0969,655.1686L807.3495,672.1798L799.34204,689.4798L786.864,705.21484L773.54236,720.93494L764.8235,739.01874L758.7438,758.1293L772.6028,774.0112L795.4453,785.06696L819.2383,788.76355L839.79004,778.1933L862.225,771.3291L886.66003,779.95105L911.4939,778.35254L922.4558,763.27484L928.2374,744.1685L934.22705,725.52356L941.8176,707.8147L950.1987,690.74115L957.46936,673.6596L962.41406,656.18066L968.0304,639.31604L979.1112,624.85565L994.4326,614.69196L1015.9818,610.55646L1003.8517,594.3366L991.93726,578.40546L973.63745,568.0658L951.3733,561.2054L931.1084,551.6706L911.6946,541.31525L890.5725,534.16797L868.5824,528.70013L846.7307,523.26654L824.75305,523.0768L802.6771,524.52496z" fill="#000000" stroke="none" fill-opacity="1" fill-rule="nonzero" />
			</g>
			<g id="layer.Fills.uuid_0xb">
				<path d="M798.3816,693.5441L771.11475,725.74207L758.2179,757.21765L761.97,770.30334L779.59375,778.6724L807.4302,792.271L825.12683,788.9105L842.09644,777.81494L860.10034,771.8568L879.3906,779.5585L892.199,782.63696L918.11694,778.58453L924.0065,757.13586L935.79565,720.46594L955.4448,680.4407L966.17896,642.48773L985.38525,617.4628L1015.5111,612.4526L986.9105,574.156L945.3589,561.3386L904.69226,539.6223L841.3058,523.85004L780.4501,527.85767L779.56323,560.8125L786.9536,588.71844L821.05786,622.64545L815.1273,657.365z" fill-rule="evenodd" fill="#FEFEFE" stroke="none" fill-opacity="1" />
			</g>
		</g>
		<g id="blender_object.KH1.008.1.uuid_0xc">
			<g id="layer.Lines.uuid_0xd">
				<path d="M985.0564,618.78485L973.954,633.1263L964.4308,648.3738L959.50867,665.71375L954.22644,683.29407L945.91675,700.23083L937.45593,717.4755L930.833,735.73694L924.76294,754.59155L919.2379,774.0084L935.0935,783.6399L959.50476,779.7711L984.6062,778.97327L1000.2573,794.8849L1014.04565,814.8209L1024.3162,835.7938L1042.6018,849.048L1060.3881,837.0958L1081.0658,854.1002L1103.3986,870.4746L1128.9355,880.7987L1140.2831,866.4845L1131.3057,844.481L1140.8699,827.1179L1151.0265,817.06177L1140.1382,797.4358L1118.1617,793.8445L1102.7728,776.5139L1086.1648,758.31274L1068.4965,742.10034L1048.143,728.74817L1035.7131,710.5812L1032.3325,693.7471L1038.016,676.36475L1039.2412,658.33826L1037.6616,640.18884L1025.1084,623.59076L1007.27966,615.0861zM1015.0875,614.3777L1030.3481,629.66077L1037.9883,647.0162L1039.0632,665.15967L1035.2906,682.6848L1029.5363,700.155L1041.1615,716.50916L1052.6506,734.82544L1075.8228,746.504L1090.429,765.0425L1108.2478,782.72534L1124.3417,791.66895L1146.2029,802.7221L1152.4716,824.11554L1136.0906,832.04456L1134.0808,851.58057L1137.8782,873.0687L1119.2012,878.2689L1095.3826,864.1438L1075.0015,846.58716L1054.0696,839.1066L1033.6573,845.70337L1023.3019,827.5585L1009.52527,807.3838L996.5845,787.44226L976.2362,776.90784L951.74036,780.5112L926.9514,781.5111L921.8423,767.02637L927.5261,747.9862L933.5089,729.3473L941.00574,711.6155L949.375,694.54614L956.7435,677.50323L961.6842,660.02673L967.067,643.0775L978.131,628.61926L992.9955,618.06177z" fill="#000000" stroke="none" fill-opacity="1" fill-rule="nonzero" />
			</g>
			<g id="layer.Fills.uuid_0xe">
				<path d="M958.489,777.9962L937.1543,782.0088L918.11694,778.58453L924.0065,757.13586L935.79565,720.46594L955.4448,680.4407L966.17896,642.48773L985.38525,617.4628L1015.5111,612.4526L1031.5461,628.4986L1038.2972,639.64185L1039.9922,668.81195L1028.6736,703.12256L1041.325,713.81995L1050.3958,731.5316L1077.4846,745.16345L1091.988,764.42676L1110.7307,782.6601L1117.1658,793.1876L1127.7719,788.3346L1146.6947,799.9348L1154.291,826.3141L1140.2681,825.0725L1130.4115,840.78L1141.0415,862.5592L1136.3245,880.1453L1114.9585,876.10364L1084.2548,854.979L1073.4387,843.33435L1059.1735,834.0463L1043.1201,847.12036L1026.5879,842.23303L1023.46826,826.2427L1015.0565,813.5624L1003.2046,797.01746L992.0215,778.23364L976.57043,775.5916z" fill-rule="evenodd" fill="#FEFEFE" stroke="none" fill-opacity="1" />
			</g>
		</g>
		<g id="blender_object.KH1.009.1.uuid_0xf">
			<g id="layer.Lines.uuid_0x10">
				<path d="M471.2445,643.6962L448.4408,640.02625L425.7279,636.37103L407.30066,627.98175L393.44336,614.76495L379.94592,605.1057L369.109,621.1578L358.07654,637.4994L341.8302,649.70056L318.68323,656.06335L303.72363,669.7205L292.81946,687.2953L282.521,705.35535L278.19214,724.6938L273.77368,744.43115L256.19458,760.62714L265.56885,776.6796L284.50708,788.44824L306.97278,795.2659L330.7682,800.49207L356.07996,802.2394L381.33948,804.3396L404.4879,810.81604L413.6682,828.1463L412.67407,850.05164L430.17517,865.1355L451.9176,858.35345L474.45068,846.0313L500.19287,843.70557L526.0375,846.46094L540.0062,833.85406L546.3707,812.7494L552.60425,792.07874L556.07825,771.5893L555.95154,751.2521L552.13257,733.4502L528.5796,727.92334L518.8313,714.7309L520.14124,695.6278L517.9928,676.9721L512.52026,660.1785L491.7904,651.90063zM515.29785,661.9525L517.8275,680.14343L519.3098,698.76263L517.99414,717.9298L531.3104,729.2229L554.7948,734.73505L555.33826,754.3135L555.45337,774.5665L551.07837,794.8945L544.8611,815.5094L538.51306,836.55756L521.6765,845.45703L495.99023,842.4478L470.5896,846.75726L448.38354,859.6637L427.3546,862.12524L413.6725,845.8524L414.32886,824.1156L401.77844,808.26965L377.86487,803.1907L352.635,801.36035L327.71936,798.8879L303.7235,794.43677L281.97485,786.48413L263.49316,774.45154L259.87122,758.1463L275.1151,741.38904L279.4956,721.77124L284.0558,702.5906L295.0725,684.82764L305.88416,667.3954L322.7467,655.578L345.78223,649.24335L360.13245,635.5221L371.07556,619.3032L381.94104,604.53546L395.54712,617.53815L409.35242,630.73096L429.12683,637.5248L451.77075,641.1682L474.14624,645.4988L494.63025,653.68884z" fill="#000000" stroke="none" fill-opacity="1" fill-rule="nonzero" />
			</g>
			<g id="layer.Fills.uuid_0x11">
				<path d="M263.5912,776.35046L278.01306,786.3894L297.57166,796.02466L316.14197,797.08356L330.87097,801.7893L349.5619,803.10034L375.6996,804.8139L398.51233,808.0443L414.18518,818.271L414.10486,840.193L413.06104,852.97626L434.66833,869.7089L472.45374,847.7207L492.4137,843.89734L512.34827,846.6871L535.786,848.50507L555.84717,781.9607L555.5686,736.1985L517.83923,727.3515L520.0482,695.02844L515.61914,663.33765L471.25415,645.6035L414.1726,636.41296L381.48096,605.2155L352.03796,648.8851L311.2815,660.0952L283.56934,704.82166L274.31616,746.3401L254.73389,764.2841z" fill-rule="evenodd" fill="#FEFEFE" stroke="none" fill-opacity="1" />
			</g>
		</g>
		<g id="blender_object.SN.1.uuid_0x12">
			<g id="layer.Lines.uuid_0x13">
				<path d="M381.56018,603.7641L383.87695,586.5823L386.11743,569.75806L381.2599,559.6264L359.40247,565.86786L337.38892,572.15393L322.60718,585.5144L309.10742,600.50934L294.97058,615.49365L275.6117,627.4408L255.99548,639.54694L236.117,651.8148L218.44647,665.683L203.07056,681.4623L183.2348,694.83936L160.5799,699.79443L135.71747,704.3353L113.835754,716.7498L100.019104,729.39L110.23724,745.35205L124.75519,759.1229L132.39532,776.31433L157.95728,775.0876L181.49573,778.14294L204.4372,771.626L226.28345,758.4689L246.04254,749.4502L257.37598,760.41046L274.55457,743.89923L278.9922,724.02563L283.33948,704.5562L294.0359,686.49915L304.97974,668.85376L321.03943,656.0475L344.32837,649.6432L359.56726,636.35956L370.66235,619.9156zM351.66443,646.9972L328.5376,653.3546L308.27295,662.3881L297.43225,679.86053L286.38562,697.6648L280.00623,716.5896L275.61633,736.2003L263.55396,753.9L250.8905,753.29297L232.16681,751.49176L212.75836,766.45245L189.76965,778.4664L167.64105,773.0388L141.99304,775.9119L127.80835,765.1604L114.58124,750.7794L106.0437,733.8808L107.20862,721.3009L128.91779,708.52496L152.8418,701.574L177.4057,699.9335L196.18658,685.9573L214.71667,672.08655L229.55908,656.5753L249.43176,644.306L269.04248,632.1981L288.3966,620.2488L304.4851,606.504L318.00964,591.48267L331.31055,576.70953L351.46143,568.7314L373.26196,562.49744L386.28418,564.4647L384.0553,581.0099L381.7837,597.87225L373.7887,614.2263L362.82617,630.4642z" fill="#000000" stroke="none" fill-opacity="1" fill-rule="nonzero" />
			</g>
			<g id="layer.Fills.uuid_0x14">
				<path d="M236.32727,749.5782L249.29993,751.1068L254.73389,764.2841L274.31616,746.3401L283.56934,704.82166L311.2815,660.0952L352.03796,648.8851L381.48096,605.2155L387.52844,559.7863L334.0382,575.07745L296.8424,616.4461L222.42975,662.4207L215.15167,673.13196L207.32562,681.2634L191.2174,690.14514L178.60254,701.2253L158.70062,701.79346L134.78125,706.53564L109.074646,721.78894L97.274475,728.0476L105.96222,735.13806L112.69867,751.12146L126.28296,761.18835L131.01337,777.57654L147.48053,777.9913L168.85107,774.84314L187.91376,781.57996L210.94696,769.70544L224.72943,761.5858z" fill-rule="evenodd" fill="#FEFEFE" stroke="none" fill-opacity="1" />
			</g>
		</g>
		<g id="blender_object.KH1.011.1.uuid_0x15">
			<g id="layer.Lines.uuid_0x16">
				<path d="M387.44202,558.45593L394.51855,542.53894L401.35645,526.8907L386.37024,516.48456L370.58984,506.55322L361.14465,493.63928L353.66577,480.01276L356.7445,465.95282L364.51648,451.83362L372.1571,437.95312L371.76465,425.2351L360.3302,414.28052L349.04944,403.47302L338.32922,392.6198L328.03992,381.78168L317.89026,371.09033L298.71558,368.13947L279.51086,365.3144L260.46472,370.60065L241.29474,377.06903L220.81653,378.16156L200.25458,378.97748L182.76373,374.22797L165.83325,368.7066L148.15613,364.1953L130.05328,360.2929L112.040955,356.40985L94.118225,352.54614L88.67493,362.41705L86.18274,375.49066L87.025024,388.44922L90.25336,401.08478L86.576965,414.52856L79.849304,428.448L76.400085,442.6828L75.877625,456.95752L77.87421,471.03687L71.66925,483.419L55.31775,494.28265L46.580017,509.4911L49.34723,523.94617L59.864075,536.0274L60.37964,551.58453L51.418396,567.3896L40.26532,583.5173L24.945862,598.05444L12.0963745,613.71L20.158997,627.3634L39.011963,634.203L61.85913,627.184L82.25995,631.32245L98.64746,641.3919L120.21149,640.58093L129.97296,624.0063L146.53925,609.2981L161.94543,594.35126L179.40741,581.5299L199.99945,582.52673L210.47064,596.3412L222.69086,609.41766L219.93701,624.96063L218.53143,642.78577L221.76111,660.36584L241.362,649.28516L261.23022,637.0195L280.83606,624.91595L299.22437,612.3472L312.93848,597.1152L326.42334,582.1377L343.53906,570.99915L365.56885,564.7052zM333.77185,573.18665L320.40344,587.9621L306.85608,603.0101L291.78003,617.4637L272.37854,629.4413L252.71777,641.579L232.79285,653.87964L220.78314,652.04675L219.4461,634.57574L224.53229,617.16364L216.74078,603.91833L206.3905,589.89484L193.16699,579.51666L171.74902,585.46124L155.82794,599.8277L139.4649,614.3667L125.62921,630.0662L111.22772,644.0476L91.02838,637.769L76.020874,626.7001L52.775024,630.2372L30.30066,632.1974L15.024109,621.99005L15.453369,606.3834L33.883118,592.7425L44.988037,576.64655L57.56909,561.02216L61.229553,544.8983L55.446228,531.0358L47.694946,517.9592L50.484436,503.1966L60.67517,488.5296L78.20099,479.7221L77.22949,465.35376L76.43329,451.20685L77.779785,437.0321L82.79169,422.98572L89.96997,409.2243L89.92224,395.98584L87.12628,383.36536L87.64929,370.47595L90.162964,357.63806L101.690186,354.6886L119.602295,358.5534L137.60425,362.43768L155.69702,366.34155L172.80255,371.51587L189.7508,377.04437L208.68073,379.1479L229.19202,378.33972L249.09448,374.96973L268.16626,368.53815L287.2173,366.96295L306.40747,369.78766L321.7766,375.91333L331.95068,386.63947L342.26477,397.51337L353.2849,408.26166L364.57764,419.09595L375.89722,430.09534L368.34363,443.8064L360.6609,457.7519L352.84583,471.93762L356.19824,485.78186L363.74902,499.51086L376.42053,510.89062L392.2152,520.8446L397.9453,533.3118L391.09595,548.9472L377.72046,560.6328L355.8246,566.8872z" fill="#000000" stroke="none" fill-opacity="1" fill-rule="nonzero" />
			</g>
			<g id="layer.Fills.uuid_0x17">
				<path d="M53.770813,498.70618L45.724487,514.0546L51.160034,528.5768L60.783813,537.7297L61.61737,550.8341L59.227295,560.70734L46.711487,575.4511L36.801025,592.32306L24.208923,600.8079L15.266174,608.142L11.183044,620.2167L25.945374,633.34894L43.358276,636.15094L62.39337,628.4331L77.846375,628.63477L92.95575,641.0199L111.329346,646.1211L122.98828,640.765L127.805725,627.60657L138.87958,617.13666L151.31036,606.87665L164.75537,592.97797L177.87036,583.0417L198.1518,580.9325L207.44086,592.9548L217.31012,606.38855L227.27734,613.86426L220.63062,625.5539L218.75562,642.38135L222.42975,662.4207L296.8424,616.4461L334.0382,575.07745L387.52844,559.7863L401.47998,527.83594L366.9745,506.10364L351.1953,477.4018L376.4276,431.49963L344.45215,400.83252L317.8092,372.73822L277.39124,366.7857L240.63837,379.2021L197.87842,380.90082L159.71466,368.4427L91.21179,353.659L86.65906,377.61298L87.69336,391.1009L90.56317,399.17584L91.308044,408.38873L83.642456,422.77197L78.47931,434.61945L76.58148,447.13116L76.46307,462.86L78.64575,473.26923L78.22229,483.34888L62.02887,488.4571z" fill-rule="evenodd" fill="#FEFEFE" stroke="none" fill-opacity="1" />
			</g>
		</g>
		<g id="blender_object.KH1.012.1.uuid_0x18">
			<g id="layer.Lines.uuid_0x19">
				<path d="M462.70728,217.59583L451.40247,226.3869L438.67725,234.62787L424.57214,242.31134L415.1449,251.72461L410.29138,262.77313L403.17737,273.1599L387.3855,280.40088L371.4364,287.71417L354.54883,283.46375L337.74402,278.98602L320.41455,275.6396L301.59692,275.00787L282.77063,274.5824L263.63733,276.5426L244.46985,278.37665L225.57233,277.98242L206.68488,277.58838L187.78406,277.27484L168.72455,277.50922L149.65912,277.7437L131.2536,281.93658L116.71698,290.33575L106.456055,301.48474L96.895874,312.93207L93.33484,325.13513L95.11932,336.92914L91.70361,349.46576L104.64679,355.33325L122.53613,359.19098L140.51477,363.068L158.58337,366.96436L175.44495,372.3778L192.36542,377.89728L211.77777,379.02582L232.23022,378.22003L251.87915,374.03064L270.87646,367.6242L289.901,367.35797L309.04858,370.1764L323.1383,377.34888L333.3031,388.06537L343.60767,398.92908L354.73035,409.63794L366.03857,420.4757L378.63245,430.05396L399.66333,428.85834L420.59485,428.47845L441.44055,429.16913L460.24463,424.25818L477.60754,415.91968L495.4536,408.3407L513.2427,400.94342L520.595,388.29913L527.3895,375.67157L540.65906,367.0694L559.0741,361.6037L577.3605,356.17615L590.3468,346.63733L602.3833,336.60767L614.2643,326.70758L597.1875,322.34686L580.87537,315.745L564.67163,309.16547L556.16895,299.12238L552.4988,287.57703L550.4739,276.10114L547.68274,264.9734L529.7567,262.11316L514.4824,256.00836L501.61975,248.2539L491.44556,239.33337L478.516,232.23474L475.86975,222.25598zM475.9309,220.34003L476.55994,230.69287L489.13928,238.11328L499.20544,247.16156L511.84338,255.23096L526.85254,261.8072L544.7218,265.16925L550.0386,274.82947L551.69617,286.48053L555.3473,298.18866L562.8098,308.96753L579.2368,315.57593L595.5178,322.50708L613.75354,326.474L601.801,336.4344L589.68884,346.52777L576.381,355.93805L557.881,361.42682L539.2494,366.95477L526.5537,376.1399L519.67065,388.92322L511.2815,401.19287L493.28235,408.67566L475.3142,416.43848L457.73706,424.877L438.24487,428.53308L417.16907,427.83502L395.9723,428.53802L375.45325,428.7832L363.9082,417.7174L352.52002,406.80164L341.4801,395.93878L331.08228,384.98627L320.82666,374.18353L304.1886,368.94464L284.84143,366.0985L265.64282,368.85358L246.3927,375.34888L226.13318,377.95056L205.44531,378.77155L186.9461,375.59198L169.87811,370.0257L152.39246,365.1081L134.15973,361.1762L116.01898,357.26398L97.96924,353.3717L94.41913,344.05365L95.51306,331.54193L94.981995,319.5987L101.34973,307.617L111.914856,296.31042L122.57922,285.39587L140.88843,279.1548L160.02411,278.097L179.29944,277.8598L198.49048,277.89807L217.58484,278.2967L236.68951,278.69537L255.9607,277.81024L275.32837,275.82532L294.48596,275.2478L313.5078,275.88397L331.78064,277.89404L348.7406,282.41443L365.80493,286.96246L382.29456,283.26666L398.32935,275.90912L409.11926,266.64862L414.04858,255.41687L420.70264,244.94989L435.00037,237.16022L448.60718,229.17596L459.99976,220.22083z" fill="#000000" stroke="none" fill-opacity="1" fill-rule="nonzero" />
			</g>
			<g id="layer.Fills.uuid_0x1a">
				<path d="M579.64233,356.79205L614.54553,327.685L595.2511,323.745L574.2998,314.7115L560.5421,309.3465L556.5974,302.64117L553.0803,292.0033L550.13696,281.3792L550.3181,276.0594L548.1837,266.77527L536.2031,265.6338L523.1664,262.05615L508.78613,254.94348L497.04773,246.86157L490.11243,239.73907L479.81592,235.50647L474.2721,229.12122L476.27087,221.65033L462.74817,219.31927L446.21228,232.33954L417.90576,247.77972L406.6892,273.3849L371.26086,289.65588L325.98145,277.57782L284.4756,276.18842L245.74817,280.1629L190.46759,279.00818L143.6258,279.5852L121.70758,287.06836L110.160095,299.7412L98.14313,312.57245L93.552185,325.33228L96.136536,335.23883L94.74536,344.97644L91.21179,353.659L159.71466,368.4427L197.87842,380.90082L240.63837,379.2021L277.39124,366.7857L317.8092,372.73822L344.45215,400.83252L376.4276,431.49963L411.71765,429.49188L449.5111,430.74493L480.0421,416.07086L513.82166,402.013L530.2461,371.46423z" fill-rule="evenodd" fill="#FEFEFE" stroke="none" fill-opacity="1" />
			</g>
		</g>
		<g id="blender_object.KH1.013.1.uuid_0x1b">
			<g id="layer.Lines.uuid_0x1c">
				<path d="M708.6991,496.11353L707.8635,481.22723L709.65186,467.2732L722.2523,456.11108L730.6068,443.6366L735.2473,430.13763L739.79614,416.8568L742.556,403.51404L745.2704,390.38995L745.1521,377.3603L741.85974,364.49957L734.8456,352.76526L722.23975,342.71033L708.28613,333.89124L691.2384,327.52527L673.6791,323.76862L654.6808,325.82776L635.6311,327.8924L616.572,326.14587L604.02783,334.58783L592.1709,344.46417L580.15955,354.469L562.4375,360.07495L544.2749,365.46368L528.54333,372.44507L521.8446,384.88684L515.0387,397.5279L516.7555,410.63855L521.0161,423.9449L524.96545,437.53107L528.5005,451.42023L536.21533,464.6053L545.1926,477.73987L561.4617,485.91064L581.098,491.7602L601.1671,496.75903L622.693,497.58972L644.23987,498.42157L665.7506,497.77277L687.2355,496.94275zM646.6095,497.9599L624.58875,497.11298L602.59033,496.26697L581.98254,491.44922L561.9171,485.47217L545.4066,477.10175L536.2656,463.73358L528.74805,450.23322L525.1415,436.07452L521.0294,422.2483L516.6907,408.70197L516.7269,395.4854L523.63367,382.65063L530.5238,370.07776L549.1786,364.54077L567.7014,359.0431L584.02234,351.90698L596.23987,341.7256L608.29724,331.67767L623.76404,327.5501L643.249,327.5614L662.69446,325.45575L681.79517,324.52698L699.1272,330.99445L715.73254,338.16022L728.5122,348.35718L739.9436,359.0799L743.275,372.08533L745.7953,385.2909L743.04517,398.59406L740.24817,412.12372L736.2184,425.69714L731.50574,439.40393L725.16504,452.80597L712.31604,464.17847L707.0563,477.61694L708.19714,492.74353L690.5348,496.26202L668.5831,497.11053z" fill="#000000" stroke="none" fill-opacity="1" fill-rule="nonzero" />
			</g>
			<g id="layer.Fills.uuid_0x1d">
				<path d="M579.64233,356.79205L530.2461,371.46423L513.82166,402.013L523.7129,432.91302L529.57434,455.94354L548.25183,483.2707L597.46045,497.94086L646.57666,499.8318L708.6134,497.4325L706.6417,471.08527L727.7821,452.36047L739.4392,418.4408L746.34875,385.00934L739.57117,358.4843L713.50354,337.6654L679.4099,324.93274L632.83887,329.98615L614.54553,327.685z" fill-rule="evenodd" fill="#FEFEFE" stroke="none" fill-opacity="1" />
			</g>
		</g>
		<g id="blender_object.KH1.014.1.uuid_0x1e">
			<g id="layer.Lines.uuid_0x1f">
				<path d="M1021.2942,401.65656L1024.0692,415.17963L1026.8922,428.93677L1021.96106,438.0124L1000.8241,436.92767L979.7152,435.84448L964.0161,442.55737L949.8373,451.71948L945.4824,465.01367L942.9944,479.25006L928.9962,489.21973L917.2439,500.401L912.4252,514.81433L907.52344,529.47565L895.0371,535.2768L873.333,529.88055L851.7643,524.51794L830.1614,522.7223L808.40955,524.14966L786.6216,525.57947L771.7313,516.10645L759.59033,502.7484L740.7886,497.7033L719.08923,496.25372L708.3562,487.6051L707.23315,472.84467L716.91895,460.83575L728.63806,449.3612L733.3224,435.71527L737.92944,422.29498L751.8921,415.46436L771.8353,412.76898L791.72375,416.96625L811.72437,421.75824L825.6907,415.39935L837.05176,404.76837L851.473,398.94305L871.90393,401.90137L892.41077,404.87067L905.0155,395.88483L919.2157,389.1933L939.7096,390.75433L960.2107,391.9417L980.7096,392.80664L1000.97595,396.8368zM984.7894,392.46466L964.21484,391.59418L943.6476,390.53522L923.0746,388.9688L907.1218,393.46918L895.1786,403.4286L875.5475,401.90295L855.0316,398.93335L838.8828,402.3603L827.50977,412.99866L815.0149,422.0055L794.9263,417.19354L774.9573,412.41022L754.95325,414.52722L738.30054,419.64655L733.6781,433.0885L728.9779,446.75647L718.5376,458.67212L706.49927,470.24152L707.6135,485.1388L714.62024,496.51044L736.38794,497.96454L757.06165,500.78638L769.2106,514.1594L782.42896,526.41583L804.30005,524.97656L826.1345,523.53955L847.8583,524.1234L869.48035,529.49945L891.23816,534.9095L906.9656,532.7534L911.91345,517.97046L916.77747,503.4389L926.8174,491.4381L940.9785,481.44147L945.5001,467.84924L947.95764,453.76068L962.01306,444.48663L976.67236,436.221L997.85034,437.30786L1019.0565,438.39612L1027.8881,431.46637L1025.0695,417.51294L1022.2988,403.79706L1005.08264,397.2765z" fill="#000000" stroke="none" fill-opacity="1" fill-rule="nonzero" />
			</g>
			<g id="layer.Fills.uuid_0x20">
				<path d="M706.6417,471.08527L708.6134,497.4325L755.68445,500.5783L780.4501,527.85767L841.3058,523.85004L904.69226,539.6223L918.5078,498.39392L942.9503,481.1391L947.54504,454.94885L974.6107,437.4411L1028.7832,440.22327L1021.28845,403.0219L984.4758,394.28278L948.9844,392.78412L913.27783,390.06238L893.70056,406.39178L844.1421,399.21063L817.2118,424.4118L773.24805,413.87036L739.4392,418.4408L727.7821,452.36047z" fill-rule="evenodd" fill="#FEFEFE" stroke="none" fill-opacity="1" />
			</g>
		</g>
		<g id="blender_object.KH1.015.1.uuid_0x21">
			<g id="layer.Lines.uuid_0x22">
				<path d="M974.92346,436.13123L996.2178,437.22424L1017.54065,438.31873L1035.84,444.46692L1050.792,456.56366L1066.4603,468.46136L1086.084,477.62537L1105.9249,486.8907L1121.6587,499.61786L1137.2893,512.8095L1153.1652,526.2084L1172.7183,537.4056L1192.5977,548.6989L1215.3177,552.3552L1238.5428,554.74066L1248.3755,568.77814L1252.8857,584.97L1246.053,599.48914L1245.6249,615.5821L1249.9521,631.5301L1226.1244,624.2198L1203.0359,619.81256L1182.9563,607.06L1159.9182,598.7429L1136.399,592.74536L1115.7035,584.2993L1097.6073,590.9545L1084.5695,602.89417L1065.2944,603.6961L1042.4635,600.7017L1024.876,608.9941L1008.79224,600.92487L996.86707,584.9892L983.0896,570.97845L960.8694,564.1314L939.58826,556.1924L920.1991,545.84595L906.43176,534.5389L911.3778,519.68634L916.239,505.08856L925.24146,492.5506L939.5001,482.4851L945.25366,469.26257L947.7289,455.07196L960.76465,445.29474zM947.66174,453.12518L945.0746,467.3473L940.5862,481.04004L926.29626,491.1253L916.2599,503.32178L911.3363,517.99945L906.3269,532.933L917.35046,544.9752L936.80054,555.3535L957.82446,563.7924L980.0989,570.6621L995.1454,583.6718L1007.0917,599.6483L1022.1659,610.05237L1039.944,601.64557L1062.7274,603.253L1082.7296,604.60706L1096.5613,593.0709L1113.4497,585.2501L1134.1658,592.4902L1157.6636,598.6024L1180.776,606.89417L1201.2467,619.2489L1224.0162,624.6281L1247.9497,631.4561L1246.9312,617.85974L1245.795,601.3976L1252.6628,586.7859L1249.775,570.60864L1241.9733,554.51575L1218.6595,552.1233L1195.4376,549.65607L1175.4614,538.31824L1155.7439,527.12726L1139.4426,513.8951L1123.7261,500.63623L1108.2518,487.58148L1088.4717,478.1543L1068.755,468.9486L1052.581,457.31378L1037.548,445.15424L1019.8054,437.90088L998.4053,436.8031L977.0337,435.7068L962.04346,443.83197z" fill="#000000" stroke="none" fill-opacity="1" fill-rule="nonzero" />
			</g>
			<g id="layer.Fills.uuid_0x23">
				<path d="M1242.2382,556.4853L1195.0951,551.64294L1153.2888,527.88324L1107.1927,488.9391L1064.0471,468.7874L1028.7832,440.22327L974.6107,437.4411L947.54504,454.94885L942.9503,481.1391L918.5078,498.39392L904.69226,539.6223L945.3589,561.3386L986.9105,574.156L1015.5111,612.4526L1029.7109,610.02734L1040.0465,602.6091L1057.7252,602.5967L1075.235,609.94934L1090.3586,601.3372L1100.9348,588.53015L1119.3862,585.5492L1134.8198,594.36926L1157.7805,600.0475L1182.7682,609.07434L1193.7549,615.3901L1206.2312,624.4505L1229.2753,626.444L1251.2406,634.0749L1242.3901,608.5809L1248.3276,595.8324L1254.0219,583.902z" fill-rule="evenodd" fill="#FEFEFE" stroke="none" fill-opacity="1" />
			</g>
		</g>
		<g id="blender_object.KH1.016.1.uuid_0x24">
			<g id="layer.Lines.uuid_0x25">
				<path d="M1021.31213,401.41022L1024.0891,415.19495L1026.9146,429.21985L1033.75,442.76855L1048.7089,454.8747L1063.8906,467.161L1083.442,476.3916L1103.292,485.66107L1119.6421,497.9159L1135.2715,511.1065L1151.1464,524.5045L1170.2639,536.0113L1190.1495,547.3082L1212.521,552.06683L1235.7802,554.4541L1258.7357,555.43134L1281.8004,561.2444L1305.4906,565.8143L1329.2797,569.7543L1352.2731,572.9809L1367.9891,564.44244L1378.8163,552.7156L1376.2169,537.64294L1368.8895,521.68646L1360.9755,506.2473L1339.7902,496.27307L1320.3129,485.2671L1303.7418,472.35022L1287.474,459.61078L1271.656,446.98596L1256.0785,434.55316L1240.7362,422.30798L1237.5417,410.67633L1245.2374,399.60004L1252.827,388.6765L1267.1509,382.26843L1284.6132,377.96942L1288.7418,366.51715L1291.5917,354.63635L1278.1798,344.35297L1261.1527,334.69232L1244.9305,324.82098L1229.689,314.6521L1226.8403,304.12292L1230.9198,293.46234L1223.8859,282.16687L1214.0981,270.96826L1204.458,259.9383L1186.0472,256.677L1166.7279,254.32233L1149.6702,255.3852L1135.5796,261.12933L1121.4127,266.94476L1107.4225,273.01703L1093.3152,279.1399L1077.446,281.24377L1058.6824,276.09332L1039.9149,271.2838L1021.0552,266.9782L1004.3281,264.5241L1004.98535,275.94232L1005.6532,287.54077L1007.18384,299.3767L1009.2999,311.43854L1011.45056,323.69647L1013.2333,336.13025L1015.0425,348.76923L1016.75305,361.6115L1018.3933,374.6637L1019.84875,387.9245zM1019.0221,375.72498L1017.3801,362.67914L1015.68555,349.84424L1013.8744,337.21136L1012.0925,324.7835L1009.968,312.54193L1007.8468,300.4948L1006.1813,288.6828L1005.48596,277.15454L1004.8014,265.80566L1019.9364,267.21466L1038.7483,271.5086L1057.4885,276.26404L1076.2067,281.40472L1092.3812,280.06616L1106.4749,273.94836L1120.4521,267.88123L1134.5676,262.05408L1148.6315,256.31775L1165.2214,254.61548L1184.4978,256.96503L1203.5118,259.6031L1213.1129,270.55066L1222.8602,281.6656L1230.6154,292.82953L1226.5221,303.4771L1228.1598,314.1831L1243.3737,324.36157L1259.4381,334.27795L1276.3993,343.89398L1291.2074,353.8551L1288.4445,365.6314L1285.1195,377.3128L1267.6996,381.6007L1252.9004,387.7121L1245.2726,398.6303L1237.5385,409.70026L1238.8184,421.3994L1254.1155,433.62732L1269.6458,446.04163L1285.4147,458.64655L1301.599,471.36444L1318.1085,484.24298L1337.0573,495.57922L1358.164,505.5282L1367.6136,520.19763L1374.9308,536.0229L1379.3102,551.3432L1368.5729,562.9984L1353.4298,571.8476L1330.9781,569.51025L1307.2308,565.5765L1283.5739,560.9019L1260.4846,555.4374L1237.6312,554.07025L1214.4142,551.68774L1191.8474,547.61847L1171.9902,536.3481L1152.6517,525.03876L1136.7878,511.65546L1121.1691,498.479L1105.1923,485.961L1085.364,476.7033L1065.7526,467.5468L1050.3285,455.49622L1035.3943,443.4214L1027.6497,430.15863L1024.8123,416.1823L1022.0233,402.4452L1020.4651,388.9712z" fill="#000000" stroke="none" fill-opacity="1" fill-rule="nonzero" />
			</g>
			<g id="layer.Fills.uuid_0x26">
				<path d="M1122.71,268.02155L1083.9084,284.87726L1046.9751,274.72443L1004.24976,264.95892L1005.9054,293.7539L1011.45056,325.3465L1015.81494,355.87958L1018.49536,377.24274L1021.28845,403.0219L1028.7832,440.22327L1064.0471,468.7874L1107.1927,488.9391L1153.2888,527.88324L1195.0951,551.64294L1242.2382,556.4853L1258.4537,556.7563L1269.5273,561.0088L1283.8802,562.9059L1307.2628,567.58936L1329.0563,571.1231L1349.2494,575.3726L1364.9984,568.3912L1372.0094,560.5242L1380.841,551.1799L1361.3099,508.56323L1325.5846,491.7204L1289.9694,463.91248L1232.6754,418.06897L1254.6948,386.5243L1285.4403,378.95178L1291.4374,353.9687L1251.0492,331.02124L1223.4803,312.55865L1231.1273,292.78162L1202.9932,260.54132L1155.3002,254.72113z" fill-rule="evenodd" fill="#FEFEFE" stroke="none" fill-opacity="1" />
			</g>
		</g>
		<g id="blender_object.KH1.017.1.uuid_0x27">
			<g id="layer.Lines.uuid_0x28">
				<path d="M1203.7548,259.32532L1223.1129,262.01837L1242.5432,264.72162L1262.0465,267.43494L1280.6603,273.05872L1298.9735,280.1261L1315.9635,288.59387L1332.3763,297.85724L1349.1884,307.00903L1369.1703,312.6947L1389.3036,318.42352L1409.1986,321.17023L1428.7863,321.26276L1446.6842,319.95L1455.2145,311.18036L1468.0499,306.17554L1487.8402,307.00018L1507.7985,309.48236L1528.2152,315.84186L1548.9171,321.07025L1569.8964,324.664L1590.9755,328.27484L1608.743,336.3999L1603.7557,346.4688L1599.1295,356.94568L1594.7958,367.68774L1590.8258,378.69592L1592.4225,391.39563L1599.0692,404.7489L1611.8959,418.03882L1624.0934,431.3722L1629.7084,445.3777L1636.9747,459.83203L1643.6791,474.42035L1644.9474,488.37177L1646.7225,502.73944L1643.7421,515.9592L1640.0507,529.0531L1624.921,536.18744L1609.7484,543.71655L1592.8654,539.00507L1574.433,525.6167L1551.3207,522.6919L1529.5902,523.4056L1510.463,527.3076L1496.59,536.01495L1482.5897,544.95013L1469.434,554.66003L1451.9059,561.1078L1430.0741,561.99805L1406.3451,557.4152L1383.0302,549.85266L1374.714,534.24634L1367.4381,518.4733L1356.7924,504.27777L1335.7648,494.37775L1317.2084,482.84723L1300.7699,470.0337L1284.6754,457.37714L1268.9812,444.851L1253.5239,432.51428L1238.2986,420.3626L1238.7423,408.94824L1246.3821,397.9527L1253.9169,387.10785L1269.5938,381.66693L1286.2394,376.94916L1289.1127,364.97168L1291.9423,353.17535L1276.1449,343.19836L1259.2303,333.60187L1243.267,323.71106L1228.1257,313.60925L1227.2432,303.0699L1231.2959,292.479L1223.0316,281.24908L1213.3201,270.2041zM1231.2355,291.21582L1227.1552,301.83026L1225.8247,312.62103L1240.993,322.76892L1256.803,332.78394L1273.715,342.372L1290.8414,352.0819L1288.8873,363.74365L1286.091,375.66205L1270.5126,380.9082L1254.1266,385.9569L1246.5227,396.84076L1238.8134,407.8755L1236.3191,419.40167L1251.5643,431.588L1267.0411,443.95953L1282.7552,456.5208L1298.8419,469.2138L1315.2933,482.04706L1333.4865,493.89618L1354.5316,503.81604L1366.3602,517.52496L1373.6354,533.3193L1381.0468,549.40875L1404.0175,557.4795L1427.8744,562.50366L1450.222,562.2619L1468.2941,556.17126L1481.5172,546.4262L1495.5189,537.43396L1508.9789,528.36005L1527.7772,523.99713L1549.5841,523.32404L1572.5809,525.8293L1591.3903,538.6088L1608.7716,544.9747L1623.7152,537.18506L1639.7301,530.51984L1644.2323,517.6116L1647.2535,504.34418L1645.3617,489.88068L1644.5907,475.9301L1638.1869,461.22357L1630.6659,446.72955L1625.3683,432.66418L1614.0096,418.98682L1600.517,405.8653L1592.9955,392.54633L1591.3375,379.87238L1594.8688,368.73944L1599.1866,357.9557L1603.8175,347.44794L1608.9274,337.27094L1593.3541,328.17932L1572.2179,324.56122L1551.182,320.96027L1530.3917,316.00232L1509.9125,309.62518L1489.8593,306.60254L1470.0258,305.7704L1455.9325,309.78156L1447.3917,318.5575L1430.6124,320.78027L1410.9808,320.69244L1391.0939,318.42126L1370.9008,312.6859L1350.8607,306.9939L1333.7716,298.0846L1317.3075,288.797L1300.412,280.1767L1282.0441,273.08307L1263.4729,267.16168L1243.9263,264.43835L1224.4526,261.72528L1205.0508,259.02203L1211.6462,268.83783L1221.3662,279.9416z" fill="#000000" stroke="none" fill-opacity="1" fill-rule="nonzero" />
			</g>
			<g id="layer.Fills.uuid_0x29">
				<path d="M1304.9489,283.86926L1268.0293,269.60248L1202.9932,260.54132L1231.1273,292.78162L1223.4803,312.55865L1251.0492,331.02124L1291.4374,353.9687L1285.4403,378.95178L1254.6948,386.5243L1232.6754,418.06897L1289.9694,463.91248L1325.5846,491.7204L1361.3099,508.56323L1380.841,551.1799L1399.7963,557.9836L1425.7362,563.7847L1447.1525,564.41125L1467.5878,557.50494L1478.6854,549.3004L1486.1571,543.80176L1495.3014,538.46405L1505.3993,530.58636L1521.8815,525.4056L1537.5292,525.14264L1557.1825,524.2821L1575.9069,527.9275L1590.0448,539.4122L1603.4056,549.2346L1617.0023,540.47974L1637.7687,533.566L1643.5741,524.3318L1642.9774,514.18555L1646.4117,505.52563L1644.2572,494.8637L1644.8007,480.94415L1641.7196,471.5774L1636.587,461.56665L1629.7145,448.30463L1625.028,435.1535L1618.5211,424.70044L1605.7704,415.2923L1595.9203,402.84772L1592.3895,396.8484L1591.4591,388.02704L1590.2347,379.62415L1593.0236,372.67365L1598.265,359.56146L1603.789,347.03796L1608.6259,337.65094L1597.768,330.8396L1539.7094,320.88824L1501.1654,308.86884L1459.7882,307.14313L1444.7025,322.6336L1398.3551,322.42615L1347.6671,308.00757z" fill-rule="evenodd" fill="#FEFEFE" stroke="none" fill-opacity="1" />
			</g>
		</g>
		<g id="blender_object.KH1.018.1.uuid_0x2a">
			<g id="layer.Lines.uuid_0x2b">
				<path d="M1305.6312,282.23102L1300.7308,270.63452L1295.4269,259.23358L1287.2965,248.09259L1279.2894,237.12158L1284.0228,228.11877L1291.1434,219.5758L1297.5524,210.95001L1299.5743,201.164L1301.568,191.51288L1303.1412,181.94812L1304.8549,172.63983L1320.1481,169.57697L1334.392,166.04211L1333.0104,156.39001L1331.6481,146.87384L1330.934,137.61792L1330.9008,128.62482L1330.868,119.75403L1341.9781,126.95276L1358.341,131.52722L1375.5133,131.61945L1390.8763,130.53326L1402.2023,125.42145L1415.361,125.237915L1431.6442,127.30859L1446.2389,124.60095L1456.3646,119.06775L1466.4235,113.690186L1476.0524,108.24585L1491.7614,113.923584L1508.1495,119.07483L1516.454,113.56848L1526.0887,108.07922L1536.4093,104.51599L1539.2094,112.96631L1536.6188,120.822266L1534.1027,128.89288L1529.7416,136.38867L1518.0734,141.17615L1510.9137,147.90216L1511.5323,157.04944L1510.1442,165.80817L1501.9562,172.732L1503.6793,182.34534L1508.0211,192.62836L1524.5385,200.83704L1537.0302,209.63184L1537.3517,219.56732L1539.7916,230.09302L1548.015,240.78986L1561.6595,251.19287L1573.8876,262.0487L1585.1744,273.3106L1596.6376,284.74835L1603.7728,296.36334L1608.0968,308.16107L1606.36,318.5766L1599.3129,327.7729L1579.9552,325.88477L1558.7621,322.2574L1537.7076,318.28046L1517.0516,311.84833L1496.6859,306.88892L1476.7333,306.05176L1458.7523,306.88422L1450.1964,315.67566L1436.9242,320.80847L1417.1815,320.72015L1397.3898,320.20953L1377.0358,314.42847L1356.837,308.6914L1338.6449,300.83838L1322.0343,291.47614zM1347.9855,306.66675L1368.1608,312.40747L1388.4904,318.19208L1408.6078,321.16742L1428.3934,321.26086L1446.5988,320.03796L1455.2157,311.1792L1468.2521,306.1839L1488.2423,307.01697L1508.4166,309.67505L1529.046,316.1006L1549.9755,321.25177L1571.1703,324.8828L1592.4667,328.53143L1603.6483,322.87683L1610.4388,313.56525L1606.1066,301.6125L1601.8422,289.8476L1590.6808,278.2257L1579.2899,266.841L1568.0739,255.63086L1554.1053,245.18683L1541.7496,234.70422L1538.4393,224.0722L1537.4149,213.86517L1532.0033,204.28662L1515.5892,195.89233L1505.9188,186.61414L1502.0441,176.60718L1507.1427,168.87598L1513.0514,161.14008L1510.1791,151.50574L1513.6888,143.3612L1525.5948,138.65314L1533.6954,132.4491L1536.7257,124.347046L1537.3512,115.96912L1538.6202,107.91455L1530.8837,105.52197L1520.3256,110.57361L1512.507,116.90698L1497.8583,116.62671L1483.1998,109.591064L1469.2877,110.29761L1461.4469,116.710815L1450.1293,121.589966L1438.0973,125.95953L1422.0768,127.39758L1406.9398,122.8634L1395.514,127.91992L1382.9362,131.8153L1365.2565,130.802L1348.6256,129.12573L1334.8883,121.55481L1330.6212,124.38904L1330.5863,133.4289L1330.6688,142.6073L1332.0355,152.06512L1333.4222,161.65802L1326.1979,167.91107L1310.9005,170.97375L1303.3807,177.70776L1301.9403,187.27997L1300.0446,196.89148L1298.0533,206.62244L1293.6788,215.81183L1286.5553,224.34106L1279.3446,232.97394L1283.4508,243.46808L1291.5477,254.57349L1298.2401,265.9048L1303.1051,277.48212L1314.6466,287.84735L1331.2108,297.19775z" fill="#000000" stroke="none" fill-opacity="1" fill-rule="nonzero" />
			</g>
			<g id="layer.Fills.uuid_0x2c">
				<path d="M1469.253,111.570435L1463.2621,117.53027L1452.1044,121.70215L1445.3251,126.10193L1433.7379,128.40381L1420.986,129.09973L1408.5206,123.65259L1395.9447,129.20697L1386.0221,133.7862L1368.652,132.30756L1353.5963,132.94733L1340.4745,127.73865L1330.4349,120.23877L1330.3422,143.36993L1333.8463,167.99487L1303.9689,173.98334L1301.5294,190.18933L1296.7443,213.5083L1277.3295,236.76392L1295.922,262.3186L1304.9489,283.86926L1347.6671,308.00757L1398.3551,322.42615L1444.7025,322.6336L1459.7882,307.14313L1501.1654,308.86884L1539.7094,320.88824L1597.768,330.8396L1609.6908,315.36737L1600.8102,290.8026L1566.0831,256.0368L1553.9572,247.32751L1541.152,236.87976L1537.9056,226.97675L1536.5927,218.6109L1536.8075,208.86096L1522.671,201.37402L1507.6415,193.94037L1503.3016,183.71149L1500.4369,175.3623L1505.5289,170.97583L1509.8741,167.36475L1512.3756,162.4607L1509.3605,152.4707L1512.4469,144.8703L1523.7902,140.43085L1532.3622,136.72784L1533.8104,130.15314L1536.7992,124.16235L1535.3224,118.946655L1539.8202,113.371704L1535.8129,104.879395L1526.1432,108.99292L1516.9479,113.738525L1509.8712,120.73779L1495.4637,117.913086L1488.0602,112.96448L1476.337,109.20984z" fill-rule="evenodd" fill="#FEFEFE" stroke="none" fill-opacity="1" />
			</g>
		</g>
		<g id="blender_object.KH1.019.1.uuid_0x2d">
			<g id="layer.Lines.uuid_0x2e">
				<path d="M987.1703,235.44202L986.6533,224.64825L986.6824,214.11115L992.6897,204.7663L997.3971,195.27301L999.187,185.27612L997.8552,175.26764L993.0742,165.35071L1000.2706,157.74976L1011.6073,151.83972L1028.8767,151.21704L1046.1304,150.59497L1063.5203,150.34174L1080.9607,150.22284L1098.1592,152.45251L1115.6329,156.22229L1133.4246,159.60419L1151.1088,161.37585L1154.6154,152.85492L1167.4656,147.85333L1169.1499,140.84692L1157.7705,132.37518L1150.5388,123.16199L1137.8036,115.74414L1132.7717,106.67053L1129.9105,97.79126L1142.4589,99.110596L1158.9856,99.036865L1176.2574,100.786865L1189.098,97.37891L1194.6161,90.06616L1211.5277,93.200195L1228.1896,94.97241L1241.2115,92.04028L1251.7441,86.75256L1262.68,83.02515L1274.4022,88.34326L1284.0839,96.43652L1298.0905,103.615234L1314.2672,109.05151L1328.4371,115.59851L1330.6,124.55603L1330.576,133.56897L1330.6854,142.72333L1332.0504,152.16663L1333.4349,161.74475L1326.087,167.93329L1310.8146,170.99097L1303.3751,177.74487L1301.9374,187.30139L1300.0436,196.89655L1298.0555,206.61102L1293.6989,215.78772L1286.5878,224.30206L1279.3898,232.91992L1283.3873,243.3808L1291.4694,254.46594L1298.2032,265.72278L1303.1005,277.15723L1294.3358,277.80328L1275.9242,270.7119L1256.795,266.2312L1237.1531,263.49475L1217.5844,260.76843L1198.0914,258.14508L1178.6719,255.77814L1159.3154,253.41888L1144.2203,257.60687L1130.0411,263.38696L1115.914,269.33148L1101.8331,275.443L1087.634,281.6057L1069.8583,279.161L1051.0885,274.00885L1032.1724,269.51703L1013.2999,265.20953L1000.8926,257.23047L993.97925,246.25336zM1004.27075,263.5197L1023.0592,267.925L1042.0253,272.2561L1060.8608,277.19025L1079.7355,282.37384L1095.1357,278.87054L1109.3054,272.71973L1123.3627,266.62433L1137.6144,260.8114L1151.7527,255.04468L1169.6497,255.15552L1189.0754,257.5238L1208.5684,259.99072L1228.1399,262.71497L1247.7852,265.44946L1267.5037,268.1942L1285.942,275.09796L1304.4952,282.25922L1301.0502,271.46143L1295.9684,259.97552L1287.8104,248.79718L1279.777,237.78986L1283.6,228.62592L1290.7423,220.05682L1297.4418,211.48517L1299.4701,201.6687L1301.4698,191.98816L1303.0748,182.3977L1304.4781,172.91858L1319.4994,169.70697L1334.4479,166.43256L1333.0621,156.75244L1331.6959,147.20886L1330.9637,137.88196L1330.994,128.78448L1331.0238,119.8103L1322.3427,111.256714L1305.4967,106.38159L1290.732,99.61865L1277.3302,92.23401L1271.106,83.74939L1255.6671,83.19531L1246.0116,88.88611L1236.3077,94.57971L1219.4901,94.533936L1202.8773,90.68201L1191.4178,93.27173L1183.3208,99.778564L1167.1874,99.5365L1150.0784,98.085815L1133.7361,96.46753L1130.2622,102.0387L1134.504,111.20911L1143.778,119.52307L1153.6854,127.85913L1162.7805,136.80286L1172.537,144.84369L1160.6311,150.34644L1151.4492,156.69958L1141.315,160.52386L1123.5452,157.03601L1105.637,154.15527L1088.6035,149.7442L1071.1323,149.85748L1053.6586,149.97089L1036.3461,150.50824L1019.05176,151.13165L1004.5386,154.27985L994.2826,161.32623L995.178,170.63116L999.556,180.65698L997.80884,190.55536L994.9695,200.37616L988.9789,209.68585L985.97864,219.72272L986.4745,230.50165L990.40173,241.4195L997.2832,252.3852z" fill="#000000" stroke="none" fill-opacity="1" fill-rule="nonzero" />
			</g>
			<g id="layer.Fills.uuid_0x2f">
				<path d="M1217.2633,96.171875L1205.0725,92.635254L1193.7399,91.21179L1188.4811,98.884766L1180.8461,102.45715L1166.222,101.12402L1152.3104,99.527466L1141.9026,100.354614L1129.2688,97.01465L1129.7944,102.67932L1134.0724,112.06897L1137.6501,117.84778L1149.1486,123.55005L1157.7261,134.51947L1166.9442,141.2782L1173.662,145.84259L1162.9943,151.13116L1151.8473,154.9212L1150.5873,162.83008L1138.5315,162.05487L1124.6022,158.94L1105.5626,155.91101L1089.9888,151.40259L1050.4729,151.6723L1008.4127,153.19061L991.6489,164.72168L999.6771,181.49756L996.45715,199.61853L985.74695,216.27185L986.69763,236.96124L1004.24976,264.95892L1046.9751,274.72443L1083.9084,284.87726L1122.71,268.02155L1155.3002,254.72113L1202.9932,260.54132L1268.0293,269.60248L1304.9489,283.86926L1295.922,262.3186L1277.3295,236.76392L1296.7443,213.5083L1301.5294,190.18933L1303.9689,173.98334L1333.8463,167.99487L1330.3422,143.36993L1330.4349,120.23877L1327.3075,115.57349L1319.4799,111.714355L1303.5521,107.63574L1289.6915,100.96118L1276.7518,93.758545L1271.6884,85.51416L1257.0671,83.52515L1250.0939,88.93945L1243.4407,91.34143L1236.7284,96.22485z" fill-rule="evenodd" fill="#FEFEFE" stroke="none" fill-opacity="1" />
			</g>
		</g>
		<g id="blender_object.KH1.020.1.uuid_0x30">
			<g id="layer.Lines.uuid_0x31">
				<path d="M1021.50964,401.70703L1020.3932,388.3266L1018.94385,375.10144L1017.3048,362.08063L1015.603,349.2693L1013.7954,336.66003L1012.01685,324.255L1009.87866,312.03497L1007.7615,300.00946L1006.16187,288.20325L1005.4907,276.6353L1004.8301,265.24658L998.9061,254.11334L992.06165,243.22388L987.02966,232.4599L986.5254,221.75958L980.3992,215.1886L963.0233,217.19446L946.11584,219.97858L929.39014,223.15204L913.9241,227.83215L898.42395,232.62073L882.8584,237.47827L867.28235,242.46075L851.5978,247.47797L834.18176,250.49017L816.5447,253.3258L803.11646,245.5105L793.39026,236.43823L793.4829,225.64752L788.64075,216.36072L772.6405,210.58289L756.49133,205.64789L738.4911,206.27142L720.47485,206.89557L705.051,211.58997L690.20605,217.40271L675.2451,223.26794L664.7739,231.9856L654.17334,240.81085L642.51917,249.11676L626.098,254.32141L609.5581,259.56372L592.89795,264.84418L580.1793,272.19244L586.3666,281.02704L604.25854,284.47766L623.26904,284.8357L640.97217,288.7428L644.6238,299.73004L639.1697,310.86816L633.9966,322.4281L642.3236,327.6668L661.61914,325.5747L680.70447,324.12006L697.89124,330.53326L714.7323,337.36212L727.39795,347.46826L739.63184,357.86267L742.93176,370.7453L746.0951,383.8402L743.37024,397.01794L740.59937,410.41797L749.75134,415.75232L769.8606,413.0357L789.9033,416.5302L810.0498,421.35706L824.8247,416.20966L836.2855,405.4853L850.24915,398.76575L870.8352,401.74664L891.4989,404.73865L904.5818,396.24658L918.6271,389.14838L939.2803,390.72156L959.94226,391.93042L980.6013,392.80206L1001.0298,396.84924zM984.7894,392.46466L963.90735,391.58105L943.03186,390.48828L922.15295,388.89856L906.41187,394.06116L894.2798,404.17798L873.7042,401.6361L852.88916,398.62317L837.53076,403.62512L825.96814,414.4408L812.0039,421.28436L791.6344,416.40503L771.3795,412.31744L751.0669,415.05347L741.1743,410.3921L743.93896,396.9262L746.6571,383.68695L743.3618,370.36725L740.0188,357.30872L727.3755,346.8069L714.5602,336.5846L697.354,329.8089L679.9806,323.32117L660.5862,325.1881L641.0853,327.30225L634.8513,320.945L640.9646,309.65424L645.3657,298.08264L639.04175,287.568L620.8513,284.1949L601.6764,283.68463L584.1012,279.5514L581.62524,270.09442L597.0383,264.03094L613.8429,258.70312L630.5249,253.41406L646.54236,247.77606L657.34094,238.77667L668.0055,229.8891L679.9065,221.93054L694.9817,216.02075L709.93164,210.1601L726.6035,207.14124L744.8048,206.5105L762.47095,207.39764L778.54285,213.19995L793.0543,219.55145L792.96094,230.34772L795.2683,240.95294L808.4916,249.57239L824.0748,252.5935L841.8722,249.73108L858.6493,245.71362L874.4541,240.65753L890.17126,235.65887L905.8888,230.80078L921.5,225.97565L937.7815,222.03046L954.6443,218.82971L972.09155,216.6117L985.7991,217.41699L986.333,228.07916L988.8489,238.94159L995.7206,249.88062L1002.69836,260.98834L1004.76843,272.38562L1005.4441,283.9967L1006.56067,295.8255L1008.6826,307.91913L1010.8391,320.21045L1012.7401,332.68604L1014.5548,345.36157L1016.32996,358.24524L1017.9752,371.3376L1019.5132,384.58636L1021.0117,398.03082L1005.3838,397.34827z" fill="#000000" stroke="none" fill-opacity="1" fill-rule="nonzero" />
			</g>
			<g id="layer.Fills.uuid_0x32">
				<path d="M675.30286,224.96863L645.31616,249.97925L582.06116,270.05206L578.19836,278.8465L590.8014,284.1543L606.73083,286.0575L616.7971,285.6941L631.1289,286.63867L642.5392,290.562L645.4558,297.19598L643.8811,307.64606L636.042,316.12378L632.83887,329.98615L679.4099,324.93274L713.50354,337.6654L739.57117,358.4843L746.34875,385.00934L739.4392,418.4408L773.24805,413.87036L817.2118,424.4118L844.1421,399.21063L893.70056,406.39178L913.27783,390.06238L948.9844,392.78412L984.4758,394.28278L1021.28845,403.0219L1018.49536,377.24274L1015.81494,355.87958L1011.45056,325.3465L1005.9054,293.7539L1004.24976,264.95892L986.69763,236.96124L985.74695,216.27185L957.13794,219.57837L928.4169,225.03473L887.2081,237.78229L850.16833,249.64459L815.2152,255.27075L793.0005,240.77722L793.2036,219.7915L758.629,207.29034L716.6467,208.74634z" fill-rule="evenodd" fill="#FEFEFE" stroke="none" fill-opacity="1" />
			</g>
		</g>
		<g id="blender_object.KH1.021.1.uuid_0x33">
			<g id="layer.Lines.uuid_0x34">
				<path d="M758.8059,205.58698L740.67615,206.19562L722.5293,206.82397L716.50806,199.8172L716.0923,189.60175L727.8657,182.20966L731.84485,174.43488L720.51843,166.36652L709.4365,158.35248L698.88245,150.29022L692.14197,141.76971L692.73315,132.27588L693.3164,122.91675L697.1096,114.06787L702.6947,105.55237L708.57263,97.2262L714.93005,89.125244L721.9115,81.31824L729.83167,73.88452L735.3656,66.048584L737.61743,57.72534L739.8397,49.51184L749.6908,45.13672L764.6107,47.45813L779.9957,45.61438L795.8196,45.683716L811.8397,47.531372L826.89087,48.255615L841.8788,52.180664L856.4512,56.59021L863.0122,63.46643L865.55054,71.91614L872.3556,80.12451L887.19543,84.293335L901.5763,81.27075L910.34155,74.85132L920.5752,75.277954L926.098,83.755615L934.01587,92.098145L943.9955,99.90881L956.3778,107.05676L972.386,110.41614L989.0386,110.37451L1005.5835,109.3363L1021.81177,113.38562L1036.9054,119.09863L1053.4753,123.50745L1065.0485,129.87262L1073.6777,138.87903L1085.6678,146.97723L1078.152,149.80316L1060.694,149.92206L1043.3185,150.2569L1026.0446,150.87964L1008.75464,151.5028L998.45776,158.4577L993.23645,166.58826L998.0283,176.56604L998.525,186.4972L996.7644,196.47247L991.4613,205.83923L984.6769,214.695L967.1875,216.7138L949.9873,219.24414L933.1553,222.43774L917.27905,226.79565L901.68677,231.61267L886.00024,236.4732L870.33093,241.48547L854.55164,246.53314L837.35596,249.97974L819.6011,252.83429L805.2821,246.92004L793.3755,238.16101L793.4691,227.26483L790.94727,217.19373L774.8102,211.3664zM793.06384,218.4422L792.9708,229.21124L793.8827,240.04968L807.0768,248.65015L822.1599,252.90143L839.94824,250.04059L856.916,246.26807L872.7184,241.21283L888.4181,236.2008L904.1328,231.3435L919.7411,226.51929L935.8552,222.39606L952.71106,219.19666L970.0663,216.84534L986.64355,214.15637L992.6843,204.76831L997.4043,195.23267L999.1998,185.2041L997.8047,175.1626L993.0089,165.21515L1000.444,157.63055L1011.9574,151.82715L1029.2827,151.20245L1046.5919,150.57831L1064.0438,150.33826L1081.5411,150.21893L1084.6705,145.87274L1072.8018,137.60406L1064.816,128.54852L1051.8168,122.673584L1035.2645,118.19446L1020.3983,112.25391L1003.839,109.01636L987.2825,110.10681L970.5061,109.75293L955.0265,105.8031L942.6896,98.663574L933.2916,90.708496L925.33484,82.41492L920.2594,73.830444L909.4354,75.2771L899.8678,81.32031L885.1432,83.62488L871.0814,78.82861L865.0012,70.48401L863.3904,62.032593L854.671,55.51306L839.84607,51.311157L824.9585,47.234863L809.66003,46.823364L793.5757,45.122803L777.87695,45.5636L762.3102,47.136963L747.6089,44.55664L739.2146,50.286987L736.9762,58.545532L734.70776,66.91467L728.4625,74.60278L720.5167,82.05652L713.7394,89.96448L707.34485,98.107544L701.5598,106.50891L695.9385,115.0741L692.8124,124.11072L692.2178,133.54858L691.61487,143.12238L699.84143,151.568L710.4514,159.68243L721.6018,167.67078L732.9293,175.7309L725.44434,183.20013L715.5314,191.12457L716.15015,201.5758L724.78503,207.20416L742.97095,206.5741L760.8435,206.81012L776.8867,212.60199z" fill="#000000" stroke="none" fill-opacity="1" fill-rule="nonzero" />
			</g>
			<g id="layer.Fills.uuid_0x35">
				<path d="M1050.4729,151.6723L1089.9888,151.40259L1072.9767,139.80304L1065.6735,132.50446L1062.6967,126.99902L1046.8633,123.21936L1029.5039,118.29529L1018.4049,113.10608L1005.37585,110.56152L991.5188,111.35901L979.0044,112.493164L959.3347,110.04077L948.4509,103.8689L937.8629,97.58154L930.9468,90.100586L924.2959,83.22974L919.3745,74.378296L912.21924,73.58203L905.5908,81.30066L889.58923,85.81714L879.0862,84.54773L871.0492,80.774414L863.2468,70.004395L862.94885,60.21814L848.27954,54.8479L833.5664,51.54065L821.3286,47.767944L812.73926,48.869263L800.8329,47.239258L784.21814,46.08557L770.1752,48.45105L757.60486,48.91516L748.4994,45.962036L740.443,47.664185L734.1532,70.89673L718.4463,85.6521L705.80383,101.77527L693.2693,120.901L691.65955,146.53546L711.5543,161.76453L735.3026,178.70422L715.60034,191.08563L716.6467,208.74634L758.629,207.29034L793.2036,219.7915L793.0005,240.77722L815.2152,255.27075L850.16833,249.64459L887.2081,237.78229L928.4169,225.03473L957.13794,219.57837L985.74695,216.27185L996.45715,199.61853L999.6771,181.49756L991.6489,164.72168L1008.4127,153.19061z" fill-rule="evenodd" fill="#FEFEFE" stroke="none" fill-opacity="1" />
			</g>
		</g>
		<g id="blender_object.SR.1.uuid_0x36">
			<g id="layer.Lines.uuid_0x37">
				<path d="M438.57092,103.802246L444.97485,95.24475L451.29468,86.79944L461.55164,79.62048L473.15686,73.860596L489.65198,74.13269L506.16187,73.91431L522.6675,73.10913L538.92114,73.57507L554.92615,75.581665L570.9717,77.616455L587.05066,79.69641L603.0681,81.98364L618.75146,84.98352L634.50854,87.99756L650.3967,90.90076L666.99854,92.351685L683.386,94.23718L698.4844,98.47583L702.5884,104.94324L697.0298,113.41211L692.92993,122.245605L692.33777,131.64685L691.73694,141.18341L697.7092,149.9375L708.2825,158.02374L719.30225,166.03448L730.5906,174.06659L727.86316,181.68219L716.1129,189.05609L716.02405,199.32837L712.652,208.60217L697.7606,214.43756L682.74475,220.3219L669.9468,227.67902L659.31885,236.52704L648.5581,245.48578L633.7788,251.88696L617.1565,257.1552L600.41223,262.4621L583.54504,267.80798L573.7274,259.3969L572.7637,248.3479L570.0486,237.50165L567.9597,226.65015L565.9728,215.91333L560.62524,205.77344L551.34937,196.91473L537.6792,190.33154L522.47327,185.04529L506.6416,180.53778L491.22986,175.73541L476.3949,170.5343L461.9359,165.15363L448.27844,159.32379L435.36694,153.09943L421.28052,147.88116L407.06006,142.88007L404.3236,136.70496L415.65112,129.09943L426.6112,121.48096L432.6316,112.58179zM425.9652,121.66492L414.86987,129.12769L403.64795,136.6759L406.16663,143.02338L420.22412,147.97064L434.2527,153.05078L446.98608,159.19147L460.3352,165.03033L474.5979,170.34094L489.19812,175.49774L504.32446,180.30493L520.0023,184.68231L535.026,189.85443L548.86694,196.03326L558.7999,204.35492L564.86755,214.1015L567.1979,224.58496L568.77295,235.34485L572.75806,245.92657L572.20374,256.94458L579.8363,267.0232L595.496,264.52026L612.06506,259.2669L628.51526,254.05133L644.848,248.87292L655.72473,240.12366L666.25073,231.3515L677.1747,223.0014L692.05115,217.1695L706.80566,211.38531L716.75415,204.10803L716.1356,193.81104L722.8804,185.33966L734.4441,178.07935L725.5801,169.97192L714.4591,162.05011L703.8473,154.08282L693.4828,146.16522L692.4414,136.96295L693.0216,127.64783L694.18164,118.53198L699.74023,110.05713L705.2273,101.69104L693.5244,96.65149L678.36536,92.92847L661.9535,91.492676L645.7345,89.71765L630.12976,86.733765L614.5973,83.763794L599.119,80.83862L583.20935,78.78076L567.35095,76.729614L551.5182,74.73657L535.73096,72.75757L519.5858,72.847534L503.29053,73.640625L486.9983,73.67456L470.71838,73.40588L460.02686,80.12427L450.3258,87.39392L444.07312,95.74988L437.77795,104.221436L431.911,112.884766z" fill="#000000" stroke="none" fill-opacity="1" fill-rule="nonzero" />
			</g>
			<g id="layer.Fills.uuid_0x38">
				<path d="M582.06116,270.05206L645.31616,249.97925L675.30286,224.96863L716.6467,208.74634L715.60034,191.08563L735.3026,178.70422L711.5543,161.76453L691.65955,146.53546L693.2693,120.901L705.80383,101.77527L681.041,94.80347L649.1084,92.01184L599.62964,82.53833L565.2517,78.08679L531.7385,73.880615L498.70276,75.49451L470.39856,75.026855L451.8728,87.2052L438.4702,105.142456L426.23376,123.24829L398.9104,141.6568L433.33545,153.78308L455.0686,164.27313L476.67102,172.32257L492.82678,177.9867L506.2887,182.13715L520.07874,185.93512L531.64514,189.86505L543.02014,193.96533L554.3341,200.307L561.9536,209.11304L565.30164,215.91559L566.90515,221.21594L567.4839,226.38354L569.1432,237.6336L573.2612,246.15637L571.38416,255.80481L574.7877,264.0711z" fill-rule="evenodd" fill="#FEFEFE" stroke="none" fill-opacity="1" />
			</g>
		</g>
		<g id="blender_object.KH1.023.1.uuid_0x39">
			<g id="layer.Lines.uuid_0x3a">
				<path d="M410.16077,34.908936L405.3413,27.508423L400.58008,20.197632L403.3734,14.600342L418.34827,11.794434L433.839,11.052856L449.2765,11.594849L464.7119,11.542358L479.7937,13.191528L495.0415,12.576416L510.20068,12.564331L524.9984,10.672119L539.7141,12.8220215L551.9321,16.3042L564.3563,20.73938L578.3616,24.278809L592.8967,27.299683L606.3585,31.40149L622.08655,32.313965L637.371,34.43982L653.26074,34.826294L668.4475,36.72534L684.0563,35.541626L699.31995,36.71045L713.7196,40.514038L728.65955,43.82788L739.7623,48.23047L737.5674,56.342407L735.34314,64.56201L730.76135,72.44629L722.9098,79.81177L715.7057,87.459595L709.41565,95.46777L699.3281,98.2782L684.32544,94.06409L668.1449,92.0343L651.6632,90.59241L635.83545,87.82483L620.1886,84.83301L604.6146,81.85498L588.7588,79.498535L572.7927,77.43335L556.8629,75.406494L540.9697,73.41431L524.902,72.58887L508.52112,73.38611L492.13098,73.7594L475.7567,73.48926L463.6023,69.06213L453.5857,62.665894L441.39758,57.911377L426.45923,55.184326L415.44043,50.77722L412.7837,42.791992zM415.9524,53.58142L430.85632,56.400024L445.86218,59.14099L456.526,65.03357L466.60706,71.47388L480.7942,73.98633L497.21997,74.25757L513.6621,73.54846L530.0857,72.747314L546.04407,74.46814L562.00085,76.46875L577.9856,78.5238L594.0165,80.597534L609.76843,83.26526L625.41394,86.257935L641.1328,89.26453L657.2749,91.50183L673.81885,92.947754L689.51135,95.96106L704.6029,100.2052L711.80237,93.11072L718.1007,85.08484L725.8854,77.58826L733.7344,70.22131L736.48987,61.90039L738.7289,53.632324L739.29297,45.78174L724.24365,42.44055L709.3751,39.008057L694.8534,35.307617L679.25305,35.429077L663.9558,35.253906L648.3131,34.378662L632.48975,33.593628L617.1632,31.400146L601.94824,29.834595L588.12537,26.010986L573.79675,22.71582L559.8804,19.083374L549.354,13.688232L534.5552,12.062622L520.07263,10.477539L505.06372,12.977905L489.8026,12.092163L474.557,12.222168L459.42236,10.668579L443.802,11.191406L428.35425,10.471924L412.93933,12.328125L397.93176,15.277954L401.6277,22.536987L406.4502,29.941284L410.6194,37.552002L413.26868,45.515015z" fill="#000000" stroke="none" fill-opacity="1" fill-rule="nonzero" />
			</g>
			<g id="layer.Fills.uuid_0x3b">
				<path d="M718.4463,85.6521L734.1532,70.89673L740.443,47.664185L711.1715,41.156494L702.32385,38.58142L691.8933,36.262573L678.1609,37.089966L668.74695,37.995728L660.51,36.052612L649.25073,36.005737L634.50073,35.549805L624.8921,33.862183L618.34106,33.03662L605.4104,32.572388L592.6754,28.40747L583.7787,26.83142L564.2273,21.885986L553.85266,18.982056L548.53455,14.635376L532.29065,13.47876L523.3843,11.479492L513.1737,13.287231L504.45557,14.665161L491.6969,13.432251L482.286,14.642456L460.08972,12.212402L446.6936,12.921387L429.15845,11.981934L417.1687,13.097168L397.44446,16.979492L410.0724,36.381226L416.23694,54.913086L448.04187,60.729492L470.39856,75.026855L498.70276,75.49451L531.7385,73.880615L565.2517,78.08679L599.62964,82.53833L649.1084,92.01184L681.041,94.80347L705.80383,101.77527z" fill-rule="evenodd" fill="#FEFEFE" stroke="none" fill-opacity="1" />
			</g>
		</g>
		<g id="blender_object.KH1.024.1.uuid_0x3c">
			<g id="layer.Lines.uuid_0x3d">
				<path d="M438.57092,103.802246L444.94604,95.2832L451.2379,86.87537L461.41748,79.70361L469.19885,72.638794L459.08765,66.180786L449.07886,59.78833L434.57373,56.66565L419.6223,53.93628L414.20874,47.075073L411.56006,39.11438L407.8811,31.40979L403.0371,23.97461L398.25146,16.629028L385.26257,18.147217L370.90796,21.043213L360.87585,27.608887L350.7594,34.33545L343.6062,40.66736L327.75293,43.021606L314.09082,47.706543L303.09656,54.489746L290.20972,60.37622L277.06116,66.18689L261.0121,69.11499L244.48285,70.98157L232.35419,76.455444L235.18134,83.38562L218.85571,86.37085L202.77881,85.35217L187.51501,83.09741L172.58936,83.38489L168.59247,91.55261L180.45709,95.384766L195.85455,97.749146L211.156,100.26306L224.35553,104.80823L237.6482,109.385376L250.80493,114.161255L263.8557,119.12048L277.00574,124.11755L292.2296,127.19348L308.4303,129.3717L325.1527,130.66663L342.0161,131.75305L358.6798,133.23962L374.62134,136.09302L390.63147,138.95874L404.4497,136.65656L415.7649,129.04047L426.66614,121.3999L432.65857,112.54187zM425.9652,121.66492L414.81628,129.15875L403.53918,136.73877L389.48682,138.31055L373.52832,135.4555L357.63794,132.61267L340.953,131.2522L324.13757,130.16876L307.49976,128.81128L291.34875,126.6438L276.34937,123.40735L263.24255,118.42859L250.2345,113.487305L237.09448,108.74487L223.84015,104.18213L210.67834,99.65137L195.31805,97.243286L179.96826,94.88635L169.06952,90.87329L174.16553,83.28406L188.98907,83.80237L204.32916,85.90527L220.44269,86.61389L236.66718,83.435425L232.61017,76.08545L245.7425,71.253784L262.22278,69.392944L278.1781,66.347534L291.11365,60.38733L303.88843,54.480957L314.84827,47.716187L328.69922,43.277954L344.5204,40.98291L351.39844,34.376465L361.43408,27.676514L371.52258,21.207397L385.94543,18.504883L398.27917,17.392334L403.02576,24.681396L407.83008,32.059326L411.35583,39.765747L414.00696,47.734375L419.99695,54.416138L434.9121,57.14087L449.20447,60.355347L459.1416,66.697754L469.1809,73.10547L460.29773,79.962524L450.46997,87.20117L444.18274,95.603516L437.84558,104.12158L431.9453,112.83435z" fill="#000000" stroke="none" fill-opacity="1" fill-rule="nonzero" />
			</g>
			<g id="layer.Fills.uuid_0x3e">
				<path d="M267.9552,69.97522L238.61963,73.29248L232.47943,77.45569L237.97992,84.37207L226.51843,87.18469L217.15735,88.219604L196.73157,86.44531L178.72412,83.023315L169.97772,85.99524L168.78192,94.77539L210.55792,101.19617L244.19324,112.7887L281.4502,126.95868L311.72632,131.02716L355.23962,133.83282L398.9104,141.6568L426.23376,123.24829L438.4702,105.142456L451.8728,87.2052L470.39856,75.026855L448.04187,60.729492L416.23694,54.913086L410.0724,36.381226L397.44446,16.979492L388.55676,19.551392L376.6056,20.227295L367.4652,24.188965L360.88135,29.343994L351.00708,35.89026L348.031,41.854248L340.75757,42.55713L321.74084,45.618774L316.91516,47.696045L300.22205,58.011597L292.08643,61.17102L279.886,67.193726z" fill-rule="evenodd" fill="#FEFEFE" stroke="none" fill-opacity="1" />
			</g>
		</g>
		<g id="blender_object.BB.1.uuid_0x3f">
			<g id="layer.Lines.uuid_0x40">
				<path d="M398.87366,139.99469L382.8203,137.12091L366.83582,134.25958L350.65088,131.87708L333.7661,130.78918L316.90918,129.703L300.49072,127.87067L284.31165,125.6994L270.57117,121.212524L257.46643,116.2345L244.46057,111.29407L231.12549,106.69006L217.87097,102.12732L203.6925,98.52893L188.25818,96.1582L172.8805,93.79614L161.2727,98.89844L153.12512,107.52197L145.64362,116.35681L141.76599,125.6073L140.72137,134.94043L140.05304,144.36957L142.58887,153.54242L144.91144,162.80322L149.96729,168.2995L167.40363,164.24146L183.9945,161.04694L190.28278,169.57544L196.6513,178.21289L199.8186,187.0658L189.7284,196.46027L179.49896,205.98419L169.12775,215.64026L152.60028,221.42102L134.64258,226.37585L129.19489,233.19818L135.4176,242.67816L139.12622,253.02466L143.38995,263.42468L145.28833,273.9071L155.19867,278.15643L174.37213,277.9204L193.50787,277.79407L212.49707,278.1905L231.49634,278.58704L250.58398,278.36133L269.86218,276.3855L289.01318,275.06476L307.9281,275.6974L326.73633,276.54962L343.57397,281.0373L360.51477,285.5525L377.21497,285.59753L393.2141,278.2563L407.49854,270.3418L412.42615,259.11346L417.2788,248.0564L430.13416,239.8114L444.25427,232.11853L456.021,223.34326L466.49316,214.19983L469.48096,204.43842L467.55115,194.49963L470.54944,184.32428L474.64197,174.42896L467.78857,167.33173L453.60425,161.8913L440.69666,155.66888L427.24377,149.97723L413.00586,144.9674zM433.15417,152.52112L445.9607,158.69702L459.2788,164.63635L473.59485,169.96417L471.49268,178.67365L469.26917,188.81732L466.06982,199.03168L471.09753,208.80182L461.8639,218.16284L450.58228,227.0321L437.61584,235.20612L423.453,242.92096L414.7489,252.62592L409.8733,263.72455L401.78357,273.79907L385.92615,281.07007L369.84265,287.53882L352.89026,283.02173L336.04102,278.53217L318.4391,275.57324L299.5619,274.93945L280.64075,274.8006L261.43933,276.76776L242.24005,278.3302L223.28223,277.93463L204.33441,277.53925L185.34967,277.30475L166.22699,277.53998L147.09802,277.77527L146.93188,268.7113L141.82104,258.4978L138.01434,248.10925L133.53827,238.03644L125.82703,229.27332L143.79626,224.31964L161.63959,219.4007L174.4978,211.26239L184.78821,201.65717L194.93903,192.18237L200.64185,182.83826L194.19342,174.12177L187.82605,165.51495L177.57617,161.41376L160.2453,165.44427L144.76373,168.04132L145.14075,158.42914L141.33783,149.46857L139.95587,140.23041L141.94427,130.79803L142.6651,121.58179L148.70685,112.545166L157.14636,103.956665L166.00806,95.659424L179.91113,95.302124L195.27081,97.66016L210.62793,100.0813L223.79657,104.61572L237.05786,109.18213L250.20288,113.93237L263.22217,118.87964L276.3401,123.8645L291.3806,127.07922L307.54517,129.25269L324.1991,130.60516L341.02612,131.68927L357.714,133.06671L373.61792,135.91327L389.5902,138.77216L404.7738,142.53333L418.91113,147.50867z" fill="#000000" stroke="none" fill-opacity="1" fill-rule="nonzero" />
			</g>
			<g id="layer.Fills.uuid_0x41">
				<path d="M137.39722,247.59259L139.96948,255.53949L144.40143,266.08875L147.79614,271.6424L143.6258,279.5852L190.46759,279.00818L245.74817,280.1629L284.4756,276.18842L325.98145,277.57782L371.26086,289.65588L406.6892,273.3849L417.90576,247.77972L446.21228,232.33954L462.74817,219.31927L471.57434,210.1908L465.96423,199.69269L469.5786,190.31177L471.2484,181.08429L476.67102,172.32257L455.0686,164.27313L433.33545,153.78308L398.9104,141.6568L355.23962,133.83282L311.72632,131.02716L281.4502,126.95868L244.19324,112.7887L210.55792,101.19617L168.78192,94.77539L161.23004,100.821045L156.24268,106.35266L148.64056,114.01965L142.49438,123.32703L142.22137,127.093994L141.94202,133.17456L139.97247,141.5373L141.10925,150.3465L145.67285,161.09918L144.75061,170.81836L183.87878,161.69775L202.33374,186.672L167.66107,219.06842L125.59906,230.69177L129.77759,234.66772L134.50702,240.82288z" fill-rule="evenodd" fill="#FEFEFE" stroke="none" fill-opacity="1" />
			</g>
		</g>
		<g id="blender_object.KH1.026.1.uuid_0x42">
			<g id="layer.Lines.uuid_0x43">
				<path d="M125.18994,229.38464L142.66168,224.64246L160.01886,219.8504L173.26251,212.4154L183.28064,203.06439L193.16669,193.83673L201.96625,184.6286L195.6825,176.13464L189.47559,167.74469L182.55695,160.25568L165.74255,164.16998L148.83075,168.10681L136.65912,175.62628L131.96985,185.383L129.17407,195.35931L122.184814,204.56042L111.93451,213.38483L115.217896,221.89496zM118.60492,223.5437L110.621704,216.15497L118.48468,206.73181L128.53583,198.28693L131.34497,188.35516L134.96533,178.59442L144.29791,169.81024L160.88611,165.75665L177.58374,161.8717L187.42902,165.70502L193.51355,173.95734L199.67322,182.31128L195.48438,191.1012L185.73132,200.18158L175.84875,209.38269L164.83496,218.04498L147.66162,222.7818L130.37213,227.5506z" fill="#000000" stroke="none" fill-opacity="1" fill-rule="nonzero" />
			</g>
			<g id="layer.Fills.uuid_0x44">
				<path d="M135.5523,178.5401L132.35907,187.15497L130.0152,193.65479L129.61102,197.445L126.486755,204.45923L116.16675,209.16486L109.63306,219.2998L118.76343,225.237L125.59906,230.69177L167.66107,219.06842L202.33374,186.672L183.87878,161.69775L144.75061,170.81836z" fill-rule="evenodd" fill="#FEFEFE" stroke="none" fill-opacity="1" />
			</g>
		</g>
	</g>
</svg>
